<svg id="Capa_1" data-name="Capa 1" xmlns="http://www.w3.org/2000/svg" viewBox="0 0 553.33 610.26"><defs><style>.cls-1{fill:#94a3b8;}.cls-2{fill:#36a9e1;}.cls-3{fill:#29235c;}</style></defs><path class="cls-1" d="M50.87,72.26H502.46a50.87,50.87,0,0,1,50.87,50.87V559.39a50.87,50.87,0,0,1-50.87,50.87H50.87A50.88,50.88,0,0,1,0,559.39V123.14A50.87,50.87,0,0,1,50.87,72.26Z"/><rect class="cls-2" x="211.46" y="42.46" width="130.48" height="130.48"/><path class="cls-3" d="M276.67,1.34A106.46,106.46,0,1,0,383.13,107.8,106.46,106.46,0,0,0,276.67,1.34ZM338,97.15a10.93,10.93,0,0,1-3.39,4.39L310.4,122.7a2.33,2.33,0,0,0-.86,2.67c2.53,11,5,22,7.45,33.26a6.65,6.65,0,0,1-9.58,7.26c-4.06-2.33-8.05-4.73-12.05-7.12l-17.63-11.05a1.61,1.61,0,0,0-2,0c-9.59,5.79-19.17,11.45-28.68,17.24a6.66,6.66,0,0,1-9.32-1.3,6,6,0,0,1-.46-.7,6.67,6.67,0,0,1-.87-4.66L244,125a2.07,2.07,0,0,0-.74-2.33l-22.62-20c-1-.8-1.93-1.66-2.86-2.53A6.69,6.69,0,0,1,222,88.44l20.7-1.87,12.9-1.19a1.75,1.75,0,0,0,1.67-1.27c4.32-10.25,8.78-20.56,13.31-30.81a6.65,6.65,0,0,1,12.7,0l13.31,30.88a1.79,1.79,0,0,0,1.67,1.33l12.37,1.13,12,1.13c2.86,0,5.72.6,8.58.73a7.32,7.32,0,0,1,7.12,5.13Z"/><path class="cls-3" d="M314.53,95.22l-14.84-1.39a18,18,0,0,1-5-.47,7.18,7.18,0,0,1-5.39-5.06l-12-28s0-.86-.6-.86-.46.53-.6.86L270.55,73.6,263.89,89A6.66,6.66,0,0,1,258,93.56l-10.65,1-15.1,1.33-5.72.53s-.74,0-.8.33,0,.54.53.74l3.06,2.66c6.65,5.92,13.31,11.91,20,17.76a7.45,7.45,0,0,1,2.46,7.92q-3.48,15-6.65,29.94s-.53.87,0,1.13.73,0,1.07-.39l26.61-15.84a7.13,7.13,0,0,1,8.05,0l26.62,15.9s.6.53.93.33,0-.59,0-.93c-2.26-10-4.53-20-6.65-30.14a7.31,7.31,0,0,1,2.52-7.92c4.26-3.66,8.45-7.38,12.65-11.11L328.5,96.62h-1.93Z"/><path class="cls-3" d="M152,315.28a29.6,29.6,0,0,1-10.45-1.8,24.23,24.23,0,0,1-8.3-5.12,23.92,23.92,0,0,1-5.46-7.83,26,26,0,0,1,0-19.87,23.5,23.5,0,0,1,5.49-7.83,24.33,24.33,0,0,1,8.38-5.12,30.26,30.26,0,0,1,10.61-1.8,30.6,30.6,0,0,1,12,2.24,22.46,22.46,0,0,1,8.75,6.44l-8.55,7.73a17.23,17.23,0,0,0-5.25-4,14.61,14.61,0,0,0-6.27-1.32,15.63,15.63,0,0,0-5.56,1,11.64,11.64,0,0,0-4.28,2.75,12.73,12.73,0,0,0-2.74,4.27,16,16,0,0,0,0,11.09,12.67,12.67,0,0,0,2.74,4.3,12.07,12.07,0,0,0,4.24,2.78,14.58,14.58,0,0,0,5.46,1,17.63,17.63,0,0,0,5.83-1,19.13,19.13,0,0,0,5.77-3.35l7.52,9.42a30.88,30.88,0,0,1-9.42,4.48A37.5,37.5,0,0,1,152,315.28Zm8.07-7.8v-17.9H171.9v19.66Z"/><path class="cls-3" d="M191.43,314.94a17,17,0,0,1-7.46-1.49,11,11,0,0,1-4.64-4.07,10.69,10.69,0,0,1-1.6-5.77,10,10,0,0,1,1.73-5.86,10.82,10.82,0,0,1,5.33-3.8,27.36,27.36,0,0,1,9.29-1.32h8.68v6.71h-6.92c-2.08,0-3.54.34-4.37,1a3.52,3.52,0,0,0,0,5.42,5.53,5.53,0,0,0,3.53,1,7.26,7.26,0,0,0,3.83-1.05,6.15,6.15,0,0,0,2.54-3.22l1.76,4.74a9.46,9.46,0,0,1-4,5.73A14,14,0,0,1,191.43,314.94Zm10.85-.61v-6.85l-.88-1.7V293.17a6,6,0,0,0-1.86-4.71q-1.87-1.66-5.94-1.66a18,18,0,0,0-5.35.84,14.54,14.54,0,0,0-4.62,2.34l-4.34-8.74a25,25,0,0,1,7.5-3.16A35.28,35.28,0,0,1,195.5,277q9,0,13.87,4.11t4.91,12.85v20.41Z"/><path class="cls-3" d="M222.42,314.33V277.57h12.27v10.72l-1.83-3.05a11.9,11.9,0,0,1,5.29-6.21A17.78,17.78,0,0,1,247,277v11.6a14.66,14.66,0,0,0-1.52-.17c-.43,0-.89,0-1.39,0a9.32,9.32,0,0,0-6.37,2.13c-1.63,1.43-2.45,3.74-2.45,6.95v16.89Z"/><path class="cls-3" d="M261.68,314.94a17,17,0,0,1-7.46-1.49,11,11,0,0,1-4.64-4.07,10.69,10.69,0,0,1-1.6-5.77,10,10,0,0,1,1.73-5.86A10.82,10.82,0,0,1,255,294a27.36,27.36,0,0,1,9.29-1.32H273v6.71h-6.91q-3.12,0-4.38,1a3.33,3.33,0,0,0-1.25,2.71,3.28,3.28,0,0,0,1.29,2.71,5.53,5.53,0,0,0,3.53,1,7.26,7.26,0,0,0,3.83-1.05,6.15,6.15,0,0,0,2.54-3.22l1.76,4.74a9.46,9.46,0,0,1-4,5.73A14,14,0,0,1,261.68,314.94Zm10.85-.61v-6.85l-.88-1.7V293.17a6,6,0,0,0-1.87-4.71q-1.86-1.66-5.93-1.66a18.08,18.08,0,0,0-5.36.84,14.59,14.59,0,0,0-4.61,2.34l-4.34-8.74a25,25,0,0,1,7.5-3.16,35.28,35.28,0,0,1,8.71-1.12q9,0,13.87,4.11t4.91,12.85v20.41Z"/><path class="cls-3" d="M316.61,277a17.12,17.12,0,0,1,7.73,1.73,12.67,12.67,0,0,1,5.45,5.33,18.9,18.9,0,0,1,2,9.29v21H318.91V295.41q0-3.93-1.59-5.73a5.63,5.63,0,0,0-4.44-1.8,7.72,7.72,0,0,0-3.73.92,6.29,6.29,0,0,0-2.65,2.81,11.16,11.16,0,0,0-.95,4.95v17.77H292.67V277.57h12.27V288l-2.37-3a14.13,14.13,0,0,1,5.76-6A17,17,0,0,1,316.61,277Z"/><path class="cls-3" d="M336,288.56v-9.63h26.65v9.63Zm20.27,26.38q-7,0-11-3.5t-3.93-10.54V269.37h12.88v31.39a4.22,4.22,0,0,0,1.09,3.09,3.67,3.67,0,0,0,2.78,1.12,6.63,6.63,0,0,0,3.93-1.15l3.19,9a11.42,11.42,0,0,1-4,1.6A23.47,23.47,0,0,1,356.27,314.94Z"/><path class="cls-3" d="M370,273.17l9.09-10.31h12.88l-12.75,10.31Zm.2,41.16V277.57h12.89v36.76Z"/><path class="cls-3" d="M403,314.94a17,17,0,0,1-7.46-1.49,11,11,0,0,1-4.64-4.07,10.77,10.77,0,0,1-1.59-5.77,10,10,0,0,1,1.72-5.86,10.82,10.82,0,0,1,5.33-3.8,27.36,27.36,0,0,1,9.29-1.32h8.68v6.71H407.4c-2.08,0-3.54.34-4.37,1a3.52,3.52,0,0,0,0,5.42,5.55,5.55,0,0,0,3.53,1,7.23,7.23,0,0,0,3.83-1.05,6.15,6.15,0,0,0,2.54-3.22l1.76,4.74a9.42,9.42,0,0,1-4,5.73A14,14,0,0,1,403,314.94Zm10.85-.61v-6.85l-.88-1.7V293.17a6,6,0,0,0-1.86-4.71c-1.25-1.11-3.22-1.66-5.94-1.66a18,18,0,0,0-5.35.84A14.38,14.38,0,0,0,395.2,290l-4.34-8.74a24.79,24.79,0,0,1,7.49-3.16,35.28,35.28,0,0,1,8.71-1.12q9,0,13.87,4.11t4.91,12.85v20.41Z"/><path class="cls-3" d="M129.87,425.76v-23.6h-9.28v-4.4h23.76v4.4h-9.28v23.6Z"/><path class="cls-3" d="M155.19,426a11.77,11.77,0,0,1-5.84-1.42,10.52,10.52,0,0,1-4-3.9,11.52,11.52,0,0,1,0-11.3,10.42,10.42,0,0,1,4-3.86,12,12,0,0,1,5.84-1.4,12.22,12.22,0,0,1,5.9,1.4,10.37,10.37,0,0,1,4,3.84,11.7,11.7,0,0,1,0,11.32,10.45,10.45,0,0,1-4,3.9A12,12,0,0,1,155.19,426Zm0-4.28a6.67,6.67,0,0,0,3.28-.8,5.68,5.68,0,0,0,2.26-2.32,8.18,8.18,0,0,0,0-7.14,5.69,5.69,0,0,0-2.26-2.3,7,7,0,0,0-6.5,0,5.82,5.82,0,0,0-2.26,2.3,8,8,0,0,0,0,7.14A5.81,5.81,0,0,0,152,421,6.49,6.49,0,0,0,155.19,421.76Z"/><path class="cls-3" d="M180.43,426a11.11,11.11,0,0,1-5.54-1.38,10,10,0,0,1-3.86-3.82,12.55,12.55,0,0,1,0-11.52,9.86,9.86,0,0,1,3.86-3.8,11.2,11.2,0,0,1,5.54-1.36,9.7,9.7,0,0,1,4.8,1.18,8.4,8.4,0,0,1,3.36,3.58,13.47,13.47,0,0,1,1.24,6.16,13.79,13.79,0,0,1-1.2,6.14,8.19,8.19,0,0,1-3.32,3.62A9.75,9.75,0,0,1,180.43,426Zm.6-4.28a6.49,6.49,0,0,0,3.22-.8,6.05,6.05,0,0,0,2.28-2.32,7.84,7.84,0,0,0,0-7.14,6.07,6.07,0,0,0-2.28-2.3,6.88,6.88,0,0,0-6.44,0,5.93,5.93,0,0,0-2.28,2.3,7.84,7.84,0,0,0,0,7.14,5.92,5.92,0,0,0,2.28,2.32A6.46,6.46,0,0,0,181,421.76Zm6.48,4v-5l.2-5.68-.4-5.68V396.08h5v29.68Z"/><path class="cls-3" d="M208.47,426a11.77,11.77,0,0,1-5.84-1.42,10.52,10.52,0,0,1-4-3.9,11.52,11.52,0,0,1,0-11.3,10.42,10.42,0,0,1,4-3.86,12,12,0,0,1,5.84-1.4,12.22,12.22,0,0,1,5.9,1.4,10.37,10.37,0,0,1,4,3.84,11.7,11.7,0,0,1,0,11.32,10.45,10.45,0,0,1-4,3.9A12,12,0,0,1,208.47,426Zm0-4.28a6.69,6.69,0,0,0,3.28-.8,5.68,5.68,0,0,0,2.26-2.32,8.18,8.18,0,0,0,0-7.14,5.69,5.69,0,0,0-2.26-2.3,7,7,0,0,0-6.5,0,5.82,5.82,0,0,0-2.26,2.3,8,8,0,0,0,0,7.14,5.81,5.81,0,0,0,2.26,2.32A6.46,6.46,0,0,0,208.47,421.76Z"/><path class="cls-3" d="M231.27,426a18.55,18.55,0,0,1-5.14-.7,13.22,13.22,0,0,1-3.9-1.7l1.92-3.8a13.67,13.67,0,0,0,3.44,1.52,13.81,13.81,0,0,0,4,.6,6.87,6.87,0,0,0,3.42-.64,2,2,0,0,0,1.06-1.72,1.49,1.49,0,0,0-.72-1.34,5.56,5.56,0,0,0-1.88-.7c-.78-.16-1.64-.3-2.58-.44a27.85,27.85,0,0,1-2.84-.54,9.83,9.83,0,0,1-2.58-1,5.26,5.26,0,0,1-1.88-1.78,5.4,5.4,0,0,1-.72-3A5.58,5.58,0,0,1,224,407.3a7.41,7.41,0,0,1,3.26-2.32,13.6,13.6,0,0,1,5-.82,20.43,20.43,0,0,1,4.36.48,11.78,11.78,0,0,1,3.64,1.36l-1.92,3.8a10.44,10.44,0,0,0-3.06-1.26,14,14,0,0,0-3.06-.34,6.61,6.61,0,0,0-3.38.68,2,2,0,0,0-1.1,1.72,1.62,1.62,0,0,0,.72,1.44,5.89,5.89,0,0,0,1.88.76,22.75,22.75,0,0,0,2.58.46,23.34,23.34,0,0,1,2.82.54,12.2,12.2,0,0,1,2.58,1,5,5,0,0,1,1.9,1.74,5.33,5.33,0,0,1,.72,2.92,5.47,5.47,0,0,1-1.18,3.48,7.53,7.53,0,0,1-3.34,2.3A14.47,14.47,0,0,1,231.27,426Z"/><path class="cls-3" d="M268.43,404.16a10.17,10.17,0,0,1,4.58,1,7.44,7.44,0,0,1,3.18,3.06,10.78,10.78,0,0,1,1.16,5.3v12.24h-5v-11.6a5.94,5.94,0,0,0-1.34-4.24,5,5,0,0,0-3.74-1.4,6.53,6.53,0,0,0-3.12.72,4.88,4.88,0,0,0-2.1,2.14,7.63,7.63,0,0,0-.74,3.58v10.8h-5V404.4h4.76v5.76l-.84-1.76a7.5,7.5,0,0,1,3.26-3.14A10.67,10.67,0,0,1,268.43,404.16Z"/><path class="cls-3" d="M292.75,426a10.73,10.73,0,0,1-4.8-1,7.29,7.29,0,0,1-3.24-3.12,10.8,10.8,0,0,1-1.16-5.3V404.4h5v11.52a6.18,6.18,0,0,0,1.3,4.3,4.74,4.74,0,0,0,3.7,1.42,6.24,6.24,0,0,0,3.06-.72,5.08,5.08,0,0,0,2-2.16,7.78,7.78,0,0,0,.74-3.56V404.4h5v21.36h-4.76V420l.84,1.76a7.35,7.35,0,0,1-3.16,3.18A9.54,9.54,0,0,1,292.75,426Z"/><path class="cls-3" d="M321,426a13,13,0,0,1-6.22-1.42,10.2,10.2,0,0,1-4.12-3.9,10.83,10.83,0,0,1-1.46-5.64,11.09,11.09,0,0,1,1.42-5.66,10.1,10.1,0,0,1,3.92-3.86,11.46,11.46,0,0,1,5.7-1.4,11.2,11.2,0,0,1,5.56,1.36,10,10,0,0,1,3.84,3.84,11.71,11.71,0,0,1,1.4,5.84c0,.21,0,.45,0,.72s0,.52-.06.76h-17.8v-3.32h15.16l-2,1a6.26,6.26,0,0,0-.76-3.24,5.9,5.9,0,0,0-2.18-2.2,6.26,6.26,0,0,0-3.18-.8,6.33,6.33,0,0,0-3.22.8,5.63,5.63,0,0,0-2.16,2.22,6.84,6.84,0,0,0-.78,3.34v.8a6.5,6.5,0,0,0,.88,3.4,5.77,5.77,0,0,0,2.48,2.28,8.14,8.14,0,0,0,3.68.8,9,9,0,0,0,3.24-.56,6.88,6.88,0,0,0,2.56-1.76l2.68,3.08a9.44,9.44,0,0,1-3.62,2.58A13,13,0,0,1,321,426Z"/><path class="cls-3" d="M342.43,426a18.55,18.55,0,0,1-5.14-.7,13.22,13.22,0,0,1-3.9-1.7l1.92-3.8a13.67,13.67,0,0,0,3.44,1.52,13.81,13.81,0,0,0,4,.6,6.87,6.87,0,0,0,3.42-.64,2,2,0,0,0,1.06-1.72,1.49,1.49,0,0,0-.72-1.34,5.56,5.56,0,0,0-1.88-.7c-.78-.16-1.64-.3-2.58-.44a27.85,27.85,0,0,1-2.84-.54,9.83,9.83,0,0,1-2.58-1,5.26,5.26,0,0,1-1.88-1.78,5.4,5.4,0,0,1-.72-3,5.58,5.58,0,0,1,1.16-3.54,7.41,7.41,0,0,1,3.26-2.32,13.6,13.6,0,0,1,5-.82,20.43,20.43,0,0,1,4.36.48,11.78,11.78,0,0,1,3.64,1.36l-1.92,3.8a10.44,10.44,0,0,0-3.06-1.26,14,14,0,0,0-3.06-.34,6.61,6.61,0,0,0-3.38.68,2,2,0,0,0-1.1,1.72,1.62,1.62,0,0,0,.72,1.44,5.89,5.89,0,0,0,1.88.76,22.75,22.75,0,0,0,2.58.46,23.34,23.34,0,0,1,2.82.54,12.2,12.2,0,0,1,2.58,1,5,5,0,0,1,1.9,1.74,5.33,5.33,0,0,1,.72,2.92,5.47,5.47,0,0,1-1.18,3.48,7.53,7.53,0,0,1-3.34,2.3A14.47,14.47,0,0,1,342.43,426Z"/><path class="cls-3" d="M353.59,408.56v-4h14.24v4ZM364.47,426a7.61,7.61,0,0,1-5.44-1.82,7.05,7.05,0,0,1-1.92-5.38V399.68h5v19a3.34,3.34,0,0,0,.78,2.36,2.82,2.82,0,0,0,2.18.84,4.38,4.38,0,0,0,2.8-.88l1.4,3.56a5.93,5.93,0,0,1-2.16,1.08A9.78,9.78,0,0,1,364.47,426Z"/><path class="cls-3" d="M373.39,425.76V404.4h4.76v5.88l-.56-1.72a6.74,6.74,0,0,1,3-3.28,10.6,10.6,0,0,1,5.14-1.12v4.76a5.35,5.35,0,0,0-.6-.1l-.56,0a6.13,6.13,0,0,0-4.52,1.66,6.67,6.67,0,0,0-1.68,4.94v10.36Z"/><path class="cls-3" d="M399.39,426a11.77,11.77,0,0,1-5.84-1.42,10.52,10.52,0,0,1-4-3.9,11.52,11.52,0,0,1,0-11.3,10.42,10.42,0,0,1,4-3.86,12,12,0,0,1,5.84-1.4,12.22,12.22,0,0,1,5.9,1.4,10.37,10.37,0,0,1,4,3.84,11.7,11.7,0,0,1,0,11.32,10.45,10.45,0,0,1-4,3.9A12,12,0,0,1,399.39,426Zm0-4.28a6.69,6.69,0,0,0,3.28-.8,5.68,5.68,0,0,0,2.26-2.32,8.18,8.18,0,0,0,0-7.14,5.69,5.69,0,0,0-2.26-2.3,7,7,0,0,0-6.5,0,5.82,5.82,0,0,0-2.26,2.3,8,8,0,0,0,0,7.14,5.81,5.81,0,0,0,2.26,2.32A6.46,6.46,0,0,0,399.39,421.76Z"/><path class="cls-3" d="M422.19,426a18.55,18.55,0,0,1-5.14-.7,13.22,13.22,0,0,1-3.9-1.7l1.92-3.8a13.67,13.67,0,0,0,3.44,1.52,13.81,13.81,0,0,0,4,.6,6.87,6.87,0,0,0,3.42-.64A2,2,0,0,0,427,419.6a1.49,1.49,0,0,0-.72-1.34,5.56,5.56,0,0,0-1.88-.7c-.78-.16-1.64-.3-2.58-.44a27.85,27.85,0,0,1-2.84-.54,9.83,9.83,0,0,1-2.58-1,5.26,5.26,0,0,1-1.88-1.78,5.4,5.4,0,0,1-.72-3A5.58,5.58,0,0,1,415,407.3a7.41,7.41,0,0,1,3.26-2.32,13.6,13.6,0,0,1,5-.82,20.43,20.43,0,0,1,4.36.48,11.78,11.78,0,0,1,3.64,1.36l-1.92,3.8a10.44,10.44,0,0,0-3.06-1.26,14,14,0,0,0-3.06-.34,6.61,6.61,0,0,0-3.38.68,2,2,0,0,0-1.1,1.72,1.62,1.62,0,0,0,.72,1.44,5.89,5.89,0,0,0,1.88.76,22.75,22.75,0,0,0,2.58.46,23.34,23.34,0,0,1,2.82.54,12.2,12.2,0,0,1,2.58,1,5,5,0,0,1,1.9,1.74,5.33,5.33,0,0,1,.72,2.92,5.47,5.47,0,0,1-1.18,3.48,7.53,7.53,0,0,1-3.34,2.3A14.47,14.47,0,0,1,422.19,426Z"/><path class="cls-3" d="M78,481.52V452.4h4.76v5l-.16,5.68.4,5.68v12.72ZM89.79,474a9.54,9.54,0,0,1-4.74-1.2,8.47,8.47,0,0,1-3.4-3.62,13.23,13.23,0,0,1-1.26-6.14,13.61,13.61,0,0,1,1.22-6.16A8.24,8.24,0,0,1,85,453.34a9.75,9.75,0,0,1,4.84-1.18,11.14,11.14,0,0,1,5.58,1.36,10.15,10.15,0,0,1,3.84,3.8,12.43,12.43,0,0,1,0,11.54,10.13,10.13,0,0,1-3.84,3.82A11.14,11.14,0,0,1,89.79,474Zm-.56-4.28a6.49,6.49,0,0,0,3.22-.8,5.81,5.81,0,0,0,2.26-2.32,8,8,0,0,0,0-7.14,5.82,5.82,0,0,0-2.26-2.3,6.49,6.49,0,0,0-3.22-.8,6.59,6.59,0,0,0-3.24.8,5.8,5.8,0,0,0-2.28,2.3,8,8,0,0,0,0,7.14A5.79,5.79,0,0,0,86,469,6.59,6.59,0,0,0,89.23,469.76Z"/><path class="cls-3" d="M105.39,473.76V452.4h4.76v5.88l-.56-1.72a6.79,6.79,0,0,1,3-3.28,10.62,10.62,0,0,1,5.14-1.12v4.76a5,5,0,0,0-.6-.1l-.56,0a6.14,6.14,0,0,0-4.52,1.66,6.67,6.67,0,0,0-1.68,4.94v10.36Z"/><path class="cls-3" d="M131.39,474a11.77,11.77,0,0,1-5.84-1.42,10.59,10.59,0,0,1-4-3.9,11.52,11.52,0,0,1,0-11.3,10.49,10.49,0,0,1,4-3.86,12,12,0,0,1,5.84-1.4,12.22,12.22,0,0,1,5.9,1.4,10.3,10.3,0,0,1,4,3.84,11.7,11.7,0,0,1,0,11.32,10.38,10.38,0,0,1-4,3.9A12,12,0,0,1,131.39,474Zm0-4.28a6.67,6.67,0,0,0,3.28-.8,5.68,5.68,0,0,0,2.26-2.32,8.18,8.18,0,0,0,0-7.14,5.69,5.69,0,0,0-2.26-2.3,7,7,0,0,0-6.5,0,5.82,5.82,0,0,0-2.26,2.3,8,8,0,0,0,0,7.14,5.81,5.81,0,0,0,2.26,2.32A6.49,6.49,0,0,0,131.39,469.76Z"/><path class="cls-3" d="M156.63,474a11.11,11.11,0,0,1-5.54-1.38,10,10,0,0,1-3.86-3.82,12.55,12.55,0,0,1,0-11.52,9.86,9.86,0,0,1,3.86-3.8,11.2,11.2,0,0,1,5.54-1.36,9.67,9.67,0,0,1,4.8,1.18,8.4,8.4,0,0,1,3.36,3.58,13.47,13.47,0,0,1,1.24,6.16,13.79,13.79,0,0,1-1.2,6.14,8.19,8.19,0,0,1-3.32,3.62A9.75,9.75,0,0,1,156.63,474Zm.6-4.28a6.49,6.49,0,0,0,3.22-.8,6.05,6.05,0,0,0,2.28-2.32,7.84,7.84,0,0,0,0-7.14,6.07,6.07,0,0,0-2.28-2.3,6.88,6.88,0,0,0-6.44,0,5.93,5.93,0,0,0-2.28,2.3,7.84,7.84,0,0,0,0,7.14A5.92,5.92,0,0,0,154,469,6.49,6.49,0,0,0,157.23,469.76Zm6.48,4v-5l.2-5.68-.4-5.68V444.08h5v29.68Z"/><path class="cls-3" d="M184.11,474a10.73,10.73,0,0,1-4.8-1,7.29,7.29,0,0,1-3.24-3.12,10.8,10.8,0,0,1-1.16-5.3V452.4h5v11.52a6.18,6.18,0,0,0,1.3,4.3,4.74,4.74,0,0,0,3.7,1.42,6.24,6.24,0,0,0,3.06-.72,5.08,5.08,0,0,0,2-2.16,7.78,7.78,0,0,0,.74-3.56V452.4h5v21.36H191V468l.84,1.76a7.35,7.35,0,0,1-3.16,3.18A9.54,9.54,0,0,1,184.11,474Z"/><path class="cls-3" d="M212.11,474a12.29,12.29,0,0,1-6-1.42,10.41,10.41,0,0,1-4.1-3.9,11.52,11.52,0,0,1,0-11.3,10.31,10.31,0,0,1,4.1-3.86,12.51,12.51,0,0,1,6-1.4,11.59,11.59,0,0,1,5.5,1.26,8.41,8.41,0,0,1,3.62,3.7l-3.84,2.24a6.17,6.17,0,0,0-2.34-2.24,6.37,6.37,0,0,0-3-.72,6.88,6.88,0,0,0-3.32.8,5.71,5.71,0,0,0-2.32,2.3,8,8,0,0,0,0,7.16,5.71,5.71,0,0,0,2.32,2.3,6.88,6.88,0,0,0,3.32.8,6.37,6.37,0,0,0,3-.72,6.17,6.17,0,0,0,2.34-2.24l3.84,2.24a8.73,8.73,0,0,1-3.62,3.7A11.26,11.26,0,0,1,212.11,474Z"/><path class="cls-3" d="M223,456.56v-4h14.24v4ZM233.87,474a7.61,7.61,0,0,1-5.44-1.82,7.05,7.05,0,0,1-1.92-5.38V447.68h5v19a3.34,3.34,0,0,0,.78,2.36,2.82,2.82,0,0,0,2.18.84,4.38,4.38,0,0,0,2.8-.88l1.4,3.56a5.93,5.93,0,0,1-2.16,1.08A9.78,9.78,0,0,1,233.87,474Z"/><path class="cls-3" d="M251.67,474a11.77,11.77,0,0,1-5.84-1.42,10.52,10.52,0,0,1-4-3.9,11.52,11.52,0,0,1,0-11.3,10.42,10.42,0,0,1,4-3.86,12,12,0,0,1,5.84-1.4,12.22,12.22,0,0,1,5.9,1.4,10.37,10.37,0,0,1,4,3.84,11.7,11.7,0,0,1,0,11.32,10.45,10.45,0,0,1-4,3.9A12,12,0,0,1,251.67,474Zm0-4.28A6.69,6.69,0,0,0,255,469a5.68,5.68,0,0,0,2.26-2.32,8.18,8.18,0,0,0,0-7.14,5.69,5.69,0,0,0-2.26-2.3,7,7,0,0,0-6.5,0,5.82,5.82,0,0,0-2.26,2.3,8,8,0,0,0,0,7.14,5.81,5.81,0,0,0,2.26,2.32A6.46,6.46,0,0,0,251.67,469.76Z"/><path class="cls-3" d="M274.47,474a18.55,18.55,0,0,1-5.14-.7,13.22,13.22,0,0,1-3.9-1.7l1.92-3.8a13.67,13.67,0,0,0,3.44,1.52,13.81,13.81,0,0,0,4,.6,6.87,6.87,0,0,0,3.42-.64,2,2,0,0,0,1.06-1.72,1.49,1.49,0,0,0-.72-1.34,5.56,5.56,0,0,0-1.88-.7c-.78-.16-1.64-.3-2.58-.44a27.85,27.85,0,0,1-2.84-.54,9.83,9.83,0,0,1-2.58-1,5.26,5.26,0,0,1-1.88-1.78,5.4,5.4,0,0,1-.72-3,5.58,5.58,0,0,1,1.16-3.54,7.41,7.41,0,0,1,3.26-2.32,13.6,13.6,0,0,1,5-.82,20.43,20.43,0,0,1,4.36.48,11.78,11.78,0,0,1,3.64,1.36l-1.92,3.8a10.44,10.44,0,0,0-3.06-1.26,14,14,0,0,0-3.06-.34,6.61,6.61,0,0,0-3.38.68,2,2,0,0,0-1.1,1.72,1.62,1.62,0,0,0,.72,1.44,5.89,5.89,0,0,0,1.88.76,22.75,22.75,0,0,0,2.58.46,23.34,23.34,0,0,1,2.82.54,12.2,12.2,0,0,1,2.58,1,5,5,0,0,1,1.9,1.74,5.33,5.33,0,0,1,.72,2.92,5.47,5.47,0,0,1-1.18,3.48,7.53,7.53,0,0,1-3.34,2.3A14.47,14.47,0,0,1,274.47,474Z"/><path class="cls-3" d="M309.31,474a12.29,12.29,0,0,1-6-1.42,10.41,10.41,0,0,1-4.1-3.9,11.52,11.52,0,0,1,0-11.3,10.31,10.31,0,0,1,4.1-3.86,12.51,12.51,0,0,1,6-1.4,11.59,11.59,0,0,1,5.5,1.26,8.41,8.41,0,0,1,3.62,3.7l-3.84,2.24a6.17,6.17,0,0,0-2.34-2.24,6.37,6.37,0,0,0-3-.72,6.88,6.88,0,0,0-3.32.8,5.71,5.71,0,0,0-2.32,2.3,8,8,0,0,0,0,7.16A5.71,5.71,0,0,0,306,469a6.88,6.88,0,0,0,3.32.8,6.37,6.37,0,0,0,3-.72,6.17,6.17,0,0,0,2.34-2.24l3.84,2.24a8.73,8.73,0,0,1-3.62,3.7A11.26,11.26,0,0,1,309.31,474Z"/><path class="cls-3" d="M331.79,474a10.73,10.73,0,0,1-4.8-1,7.29,7.29,0,0,1-3.24-3.12,10.8,10.8,0,0,1-1.16-5.3V452.4h5v11.52a6.18,6.18,0,0,0,1.3,4.3,4.74,4.74,0,0,0,3.7,1.42,6.24,6.24,0,0,0,3.06-.72,5.08,5.08,0,0,0,2-2.16,7.78,7.78,0,0,0,.74-3.56V452.4h5v21.36h-4.76V468l.84,1.76a7.35,7.35,0,0,1-3.16,3.18A9.54,9.54,0,0,1,331.79,474Z"/><path class="cls-3" d="M360,474a13,13,0,0,1-6.22-1.42,10.2,10.2,0,0,1-4.12-3.9,10.83,10.83,0,0,1-1.46-5.64,11.09,11.09,0,0,1,1.42-5.66,10.1,10.1,0,0,1,3.92-3.86,11.46,11.46,0,0,1,5.7-1.4,11.2,11.2,0,0,1,5.56,1.36,10,10,0,0,1,3.84,3.84,11.71,11.71,0,0,1,1.4,5.84c0,.21,0,.45,0,.72s0,.52-.06.76h-17.8v-3.32h15.16l-2,1a6.26,6.26,0,0,0-.76-3.24,5.9,5.9,0,0,0-2.18-2.2,6.26,6.26,0,0,0-3.18-.8,6.33,6.33,0,0,0-3.22.8,5.63,5.63,0,0,0-2.16,2.22,6.84,6.84,0,0,0-.78,3.34v.8a6.5,6.5,0,0,0,.88,3.4,5.77,5.77,0,0,0,2.48,2.28,8.14,8.14,0,0,0,3.68.8,9,9,0,0,0,3.24-.56,6.88,6.88,0,0,0,2.56-1.76l2.68,3.08a9.44,9.44,0,0,1-3.62,2.58A13,13,0,0,1,360,474Z"/><path class="cls-3" d="M387,452.16a10.17,10.17,0,0,1,4.58,1,7.44,7.44,0,0,1,3.18,3.06,10.78,10.78,0,0,1,1.16,5.3v12.24h-5v-11.6a5.94,5.94,0,0,0-1.34-4.24,5,5,0,0,0-3.74-1.4,6.53,6.53,0,0,0-3.12.72,4.88,4.88,0,0,0-2.1,2.14,7.63,7.63,0,0,0-.74,3.58v10.8h-5V452.4h4.76v5.76l-.84-1.76a7.5,7.5,0,0,1,3.26-3.14A10.67,10.67,0,0,1,387,452.16Z"/><path class="cls-3" d="M399.43,456.56v-4h14.24v4ZM410.31,474a7.61,7.61,0,0,1-5.44-1.82,7.05,7.05,0,0,1-1.92-5.38V447.68h5v19a3.34,3.34,0,0,0,.78,2.36,2.82,2.82,0,0,0,2.18.84,4.38,4.38,0,0,0,2.8-.88l1.4,3.56a5.93,5.93,0,0,1-2.16,1.08A9.78,9.78,0,0,1,410.31,474Z"/><path class="cls-3" d="M425.67,474a10,10,0,0,1-4.2-.82,6.45,6.45,0,0,1-2.78-2.28,5.72,5.72,0,0,1-1-3.3,6.14,6.14,0,0,1,.86-3.24,5.77,5.77,0,0,1,2.82-2.28,13.38,13.38,0,0,1,5.2-.84h6.2v3.32H427c-1.71,0-2.86.27-3.44.82a2.65,2.65,0,0,0-.88,2,2.54,2.54,0,0,0,1.08,2.16,4.91,4.91,0,0,0,3,.8,6.53,6.53,0,0,0,3.3-.84,4.77,4.77,0,0,0,2.1-2.48l.84,3a5.52,5.52,0,0,1-2.58,2.92A9.59,9.59,0,0,1,425.67,474Zm6.72-.28v-4.32l-.28-.92V461a4.42,4.42,0,0,0-1.32-3.42,5.75,5.75,0,0,0-4-1.22,11.59,11.59,0,0,0-3.54.56,8.76,8.76,0,0,0-2.94,1.56l-2-3.64a11.77,11.77,0,0,1,4.1-2,18.35,18.35,0,0,1,4.94-.66q4.64,0,7.18,2.22t2.54,6.86v12.52Z"/><path class="cls-3" d="M455.63,452.16a10.17,10.17,0,0,1,4.58,1,7.44,7.44,0,0,1,3.18,3.06,10.78,10.78,0,0,1,1.16,5.3v12.24h-5v-11.6a5.94,5.94,0,0,0-1.34-4.24,5,5,0,0,0-3.74-1.4,6.53,6.53,0,0,0-3.12.72,4.88,4.88,0,0,0-2.1,2.14,7.63,7.63,0,0,0-.74,3.58v10.8h-5V452.4h4.76v5.76l-.84-1.76a7.5,7.5,0,0,1,3.26-3.14A10.67,10.67,0,0,1,455.63,452.16Z"/><path class="cls-3" d="M155.49,522a12.29,12.29,0,0,1-6-1.42,10.47,10.47,0,0,1-4.1-3.9,11.52,11.52,0,0,1,0-11.3,10.38,10.38,0,0,1,4.1-3.86,12.51,12.51,0,0,1,6-1.4,11.59,11.59,0,0,1,5.5,1.26,8.36,8.36,0,0,1,3.62,3.7l-3.84,2.24a6.17,6.17,0,0,0-2.34-2.24,6.34,6.34,0,0,0-3-.72,6.91,6.91,0,0,0-3.32.8,5.71,5.71,0,0,0-2.32,2.3,8,8,0,0,0,0,7.16,5.71,5.71,0,0,0,2.32,2.3,6.91,6.91,0,0,0,3.32.8,6.34,6.34,0,0,0,3-.72,6.17,6.17,0,0,0,2.34-2.24l3.84,2.24a8.67,8.67,0,0,1-3.62,3.7A11.26,11.26,0,0,1,155.49,522Z"/><path class="cls-3" d="M178.21,522a11.8,11.8,0,0,1-5.84-1.42,10.59,10.59,0,0,1-4-3.9,11.52,11.52,0,0,1,0-11.3,10.49,10.49,0,0,1,4-3.86,12,12,0,0,1,5.84-1.4,12.22,12.22,0,0,1,5.9,1.4,10.37,10.37,0,0,1,4,3.84,11.7,11.7,0,0,1,0,11.32,10.45,10.45,0,0,1-4,3.9A12,12,0,0,1,178.21,522Zm0-4.28a6.67,6.67,0,0,0,3.28-.8,5.68,5.68,0,0,0,2.26-2.32,8.18,8.18,0,0,0,0-7.14,5.69,5.69,0,0,0-2.26-2.3,7,7,0,0,0-6.5,0,5.82,5.82,0,0,0-2.26,2.3,8,8,0,0,0,0,7.14A5.81,5.81,0,0,0,175,517,6.49,6.49,0,0,0,178.21,517.76Z"/><path class="cls-3" d="M206.53,500.16a10.14,10.14,0,0,1,4.58,1,7.38,7.38,0,0,1,3.18,3.06,10.78,10.78,0,0,1,1.16,5.3v12.24h-5v-11.6a5.94,5.94,0,0,0-1.34-4.24,5,5,0,0,0-3.74-1.4,6.59,6.59,0,0,0-3.12.72,4.88,4.88,0,0,0-2.1,2.14,7.76,7.76,0,0,0-.74,3.58v10.8h-5V500.4h4.76v5.76l-.84-1.76a7.55,7.55,0,0,1,3.26-3.14A10.67,10.67,0,0,1,206.53,500.16Z"/><path class="cls-3" d="M241.89,520.8a11.54,11.54,0,0,1-5.5-1.3,9.74,9.74,0,0,1-3.88-3.62,11.05,11.05,0,0,1,0-10.84,9.69,9.69,0,0,1,3.88-3.6,11.77,11.77,0,0,1,5.5-1.28,10.77,10.77,0,0,1,4.88,1.08,8.16,8.16,0,0,1,3.46,3.36,13.81,13.81,0,0,1,0,11.7,8.2,8.2,0,0,1-3.46,3.4A10.65,10.65,0,0,1,241.89,520.8Zm.64,9a21.55,21.55,0,0,1-5.78-.78,12.32,12.32,0,0,1-4.62-2.26l2.24-3.76a10.76,10.76,0,0,0,3.54,1.86,13.74,13.74,0,0,0,4.34.7q3.51,0,5.16-1.62a6.56,6.56,0,0,0,1.64-4.86v-3.8l.4-4.84-.16-4.84v-5.2h4.76v18.12c0,3.87-1,6.71-3,8.54S246.26,529.8,242.53,529.8Zm.12-13.24a7.12,7.12,0,0,0,3.36-.78,5.77,5.77,0,0,0,2.3-2.16,6.58,6.58,0,0,0,0-6.36,5.55,5.55,0,0,0-2.3-2.12,7.48,7.48,0,0,0-3.36-.74,7.56,7.56,0,0,0-3.38.74,5.42,5.42,0,0,0-2.32,2.12,6.58,6.58,0,0,0,0,6.36,5.64,5.64,0,0,0,2.32,2.16A7.2,7.2,0,0,0,242.65,516.56Z"/><path class="cls-3" d="M267.05,522a10,10,0,0,1-4.2-.82,6.45,6.45,0,0,1-2.78-2.28,5.72,5.72,0,0,1-1-3.3,6.14,6.14,0,0,1,.86-3.24,5.77,5.77,0,0,1,2.82-2.28,13.38,13.38,0,0,1,5.2-.84h6.2v3.32h-5.84c-1.71,0-2.86.27-3.44.82a2.65,2.65,0,0,0-.88,2,2.54,2.54,0,0,0,1.08,2.16,4.91,4.91,0,0,0,3,.8,6.53,6.53,0,0,0,3.3-.84,4.77,4.77,0,0,0,2.1-2.48l.84,3a5.52,5.52,0,0,1-2.58,2.92A9.59,9.59,0,0,1,267.05,522Zm6.72-.28v-4.32l-.28-.92V509a4.42,4.42,0,0,0-1.32-3.42,5.75,5.75,0,0,0-4-1.22,11.59,11.59,0,0,0-3.54.56,8.76,8.76,0,0,0-2.94,1.56l-2-3.64a11.77,11.77,0,0,1,4.1-2,18.35,18.35,0,0,1,4.94-.66q4.64,0,7.18,2.22t2.54,6.86v12.52Z"/><path class="cls-3" d="M284.89,521.76V500.4h4.76v5.88l-.56-1.72a6.74,6.74,0,0,1,3-3.28,10.6,10.6,0,0,1,5.14-1.12v4.76a5.35,5.35,0,0,0-.6-.1l-.56,0a6.13,6.13,0,0,0-4.52,1.66,6.67,6.67,0,0,0-1.68,4.94v10.36Z"/><path class="cls-3" d="M306.41,522a10,10,0,0,1-4.2-.82,6.45,6.45,0,0,1-2.78-2.28,5.72,5.72,0,0,1-1-3.3,6.14,6.14,0,0,1,.86-3.24,5.77,5.77,0,0,1,2.82-2.28,13.38,13.38,0,0,1,5.2-.84h6.2v3.32h-5.84c-1.71,0-2.86.27-3.44.82a2.65,2.65,0,0,0-.88,2,2.54,2.54,0,0,0,1.08,2.16,4.91,4.91,0,0,0,3,.8,6.53,6.53,0,0,0,3.3-.84,4.77,4.77,0,0,0,2.1-2.48l.84,3a5.52,5.52,0,0,1-2.58,2.92A9.59,9.59,0,0,1,306.41,522Zm6.72-.28v-4.32l-.28-.92V509a4.42,4.42,0,0,0-1.32-3.42,5.75,5.75,0,0,0-4-1.22,11.59,11.59,0,0,0-3.54.56,8.76,8.76,0,0,0-2.94,1.56l-2-3.64a11.77,11.77,0,0,1,4.1-2,18.35,18.35,0,0,1,4.94-.66q4.64,0,7.18,2.22t2.54,6.86v12.52Z"/><path class="cls-3" d="M336.37,500.16a10.17,10.17,0,0,1,4.58,1,7.44,7.44,0,0,1,3.18,3.06,10.78,10.78,0,0,1,1.16,5.3v12.24h-5v-11.6a5.94,5.94,0,0,0-1.34-4.24,5,5,0,0,0-3.74-1.4,6.53,6.53,0,0,0-3.12.72,4.88,4.88,0,0,0-2.1,2.14,7.63,7.63,0,0,0-.74,3.58v10.8h-5V500.4H329v5.76l-.84-1.76a7.5,7.5,0,0,1,3.26-3.14A10.67,10.67,0,0,1,336.37,500.16Z"/><path class="cls-3" d="M348.81,504.56v-4h14.24v4ZM359.69,522a7.61,7.61,0,0,1-5.44-1.82,7.05,7.05,0,0,1-1.92-5.38V495.68h5v19a3.34,3.34,0,0,0,.78,2.36,2.82,2.82,0,0,0,2.18.84,4.38,4.38,0,0,0,2.8-.88l1.4,3.56a5.93,5.93,0,0,1-2.16,1.08A9.78,9.78,0,0,1,359.69,522Z"/><path class="cls-3" d="M367.77,497.48l5.4-5.48h5.88l-7,5.48Zm.84,24.28V500.4h5v21.36Z"/><path class="cls-3" d="M386.61,522a10,10,0,0,1-4.2-.82,6.45,6.45,0,0,1-2.78-2.28,5.72,5.72,0,0,1-1-3.3,6.14,6.14,0,0,1,.86-3.24,5.77,5.77,0,0,1,2.82-2.28,13.38,13.38,0,0,1,5.2-.84h6.2v3.32h-5.84c-1.71,0-2.86.27-3.44.82a2.65,2.65,0,0,0-.88,2,2.54,2.54,0,0,0,1.08,2.16,4.91,4.91,0,0,0,3,.8,6.53,6.53,0,0,0,3.3-.84,4.77,4.77,0,0,0,2.1-2.48l.84,3a5.52,5.52,0,0,1-2.58,2.92A9.59,9.59,0,0,1,386.61,522Zm6.72-.28v-4.32l-.28-.92V509a4.42,4.42,0,0,0-1.32-3.42,5.75,5.75,0,0,0-4-1.22,11.59,11.59,0,0,0-3.54.56,8.76,8.76,0,0,0-2.94,1.56l-2-3.64a11.77,11.77,0,0,1,4.1-2,18.35,18.35,0,0,1,4.94-.66q4.64,0,7.18,2.22t2.54,6.86v12.52Z"/><path class="cls-3" d="M406.05,522a3.38,3.38,0,0,1-2.32-5.74,3.44,3.44,0,0,1,4.64,0,3.16,3.16,0,0,1,1,2.42,3.25,3.25,0,0,1-3.28,3.32Z"/></svg>