<svg id="Capa_1" data-name="Capa 1" xmlns="http://www.w3.org/2000/svg" viewBox="0 0 32 32"><defs><style>.cls-1{fill:#36a9e1;}.cls-2{fill:#29235c;}</style></defs><rect class="cls-1" x="6.2" y="6.25" width="19.61" height="19.61"/><path class="cls-2" d="M17.92,7.49a6.47,6.47,0,0,0-3.69,1.08,6.59,6.59,0,0,0-2.07,2.16,7,7,0,0,1,1.13-.21.57.57,0,0,0,.38-.2A5.53,5.53,0,0,1,19,8.59a5.7,5.7,0,0,1,2.64,9.83c-.06,0-.13.09-.14.18a6.29,6.29,0,0,1-.22,1.26,6.66,6.66,0,0,0-3.4-12.37Z"/><path class="cls-2" d="M21.59,17.37c.05,0,.07,0,.1-.07l0-.05a5,5,0,0,0,1.09-3.17,5.91,5.91,0,0,0-.17-1.16,4.92,4.92,0,0,0-6.07-3.51,4.66,4.66,0,0,0-1.81.93s-.11.06-.09.12.09,0,.15,0l.53.07a7.38,7.38,0,0,1,6,5.41,5,5,0,0,1,.22,1.28S21.54,17.36,21.59,17.37Z"/><path class="cls-2" d="M14.16,13a4.93,4.93,0,1,0,4.89,4.95A4.94,4.94,0,0,0,14.16,13ZM16,20.43a2.58,2.58,0,0,1-1.22.56,2.72,2.72,0,0,1-2.88-1.53.28.28,0,0,0-.29-.18h-.4a.39.39,0,0,1-.41-.38.42.42,0,0,1,.37-.4c.12,0,.28.07.36-.05s0-.24,0-.36a2.28,2.28,0,0,1,0-.58c0-.13,0-.21-.18-.19h-.18a.39.39,0,0,1,0-.77,2.26,2.26,0,0,1,.45,0,.27.27,0,0,0,.3-.18,2.77,2.77,0,0,1,1.93-1.51,2.56,2.56,0,0,1,2.12.51.41.41,0,0,1,.14.58.41.41,0,0,1-.6,0,1.85,1.85,0,0,0-2.61.3s0,0,0,.06-.12.1-.09.16.11,0,.18,0h.58a.41.41,0,0,1,.43.4.4.4,0,0,1-.44.38h-1a.16.16,0,0,0-.18.15,3.46,3.46,0,0,0,0,.85c0,.16.09.19.23.18.32,0,.64,0,1,0a.39.39,0,0,1,.36.59.39.39,0,0,1-.36.18h-.67c-.11,0-.15,0-.07.13a1.88,1.88,0,0,0,2.52.58l.25-.18a.39.39,0,1,1,.46.62Z"/><path class="cls-2" d="M16,.05a16,16,0,1,0,16,16A16,16,0,0,0,16,.05Zm3.13,23.23a.37.37,0,0,1-.39-.37.39.39,0,0,1,.77,0A.37.37,0,0,1,19.13,23.28Zm-5,.33a5.7,5.7,0,1,1,5.71-5.68A5.71,5.71,0,0,1,14.12,23.61Zm11.19-8.73A10.51,10.51,0,0,1,25,16.36a7.39,7.39,0,0,1-3.88,4.51.57.57,0,0,0-.29.28,5.49,5.49,0,0,1-.31.59c-.15.26-.37.34-.57.22a.41.41,0,0,1-.1-.61,6,6,0,0,0,.85-2.28,6.52,6.52,0,0,0-1.43-5.4A6.29,6.29,0,0,0,15,11.31a6.5,6.5,0,0,0-6.45,2.92,6.31,6.31,0,0,0-1.11,3.39A6.66,6.66,0,0,0,13,24.48a6.5,6.5,0,0,0,4.54-.8l.15-.08a.38.38,0,1,1,.38.66,6.4,6.4,0,0,1-1.23.61,7.18,7.18,0,0,1-3.21.47A7.42,7.42,0,0,1,6.81,19.2a7.27,7.27,0,0,1,2.25-6.73,6.8,6.8,0,0,1,1.87-1.27.49.49,0,0,0,.23-.24,7.36,7.36,0,0,1,5.53-4.15l.48-.07h1.42l.59.09a7.37,7.37,0,0,1,5.74,4.9,7.88,7.88,0,0,1,.39,1.73Z"/></svg>