<svg id="Capa_1" data-name="Capa 1" xmlns="http://www.w3.org/2000/svg" viewBox="0 0 32 32"><defs><style>.cls-1{fill:#36a9e1;}.cls-2{fill:#29235c;}</style></defs><rect class="cls-1" x="6.2" y="2.81" width="19.61" height="25.5"/><path class="cls-2" d="M20.15,14.79c-1.41,0-2.83,0-4.24,0a.68.68,0,0,1-.69-.9c.19-.65.34-1.32.5-2s.33-1.29.5-2l0,.05-4.4,7s-.11.11-.07.18.12,0,.19,0h4.26a.62.62,0,0,1,.66.54.77.77,0,0,1,0,.37c-.33,1.3-.65,2.6-1,3.9h0l4.46-7.09C20.38,14.76,20.26,14.79,20.15,14.79Z"/><path class="cls-2" d="M16,0A16,16,0,1,0,32,16,16,16,0,0,0,16,0Zm6,14.64c-1.38,2.17-2.74,4.35-4.11,6.53q-1.55,2.45-3.07,4.89a1,1,0,0,1-.42.41H14a.68.68,0,0,1-.38-.9c.57-2.29,1.15-4.58,1.72-6.87.06-.23.06-.23-.18-.23H10.64a.7.7,0,0,1-.7-.32.76.76,0,0,1,.09-.79c1.38-2.17,2.74-4.35,4.11-6.53q1.54-2.45,3.07-4.89a1,1,0,0,1,.42-.41H18a.68.68,0,0,1,.38.9C17.85,8.72,17.27,11,16.7,13.3c-.06.23-.06.23.18.23h4.49a.69.69,0,0,1,.69.32A.76.76,0,0,1,22,14.64Z"/></svg>