<?xml version="1.0" encoding="utf-8"?>
<!-- Generator: Adobe Illustrator 28.3.0, SVG Export Plug-In . SVG Version: 6.00 Build 0)  -->
<svg version="1.1" id="Capa_1" xmlns="http://www.w3.org/2000/svg" xmlns:xlink="http://www.w3.org/1999/xlink" x="0px" y="0px"
	 viewBox="0 0 32 32" style="enable-background:new 0 0 32 32;" xml:space="preserve">
<style type="text/css">
	.st0{fill:#2A285A;}
	.st1{fill:none;stroke:#FFFFFF;stroke-miterlimit:10;}
</style>
<path class="st0" d="M9.2,13.9c-0.4-0.3-0.8-0.4-1.3-0.2c-0.5,0.2-0.8,0.6-0.8,1.1c0,1.8,0,3.6,0,5.3c0,0.5,0.3,0.9,0.8,1.1
	c0.8,0.3,1.7-0.3,1.7-1.1c0-0.9,0-1.7,0-2.6s0-1.7,0-2.6C9.6,14.5,9.5,14.2,9.2,13.9L9.2,13.9z"/>
<path class="st0" d="M24.9,17.4c0-0.9,0-1.8,0-2.6c0-0.5-0.4-1-0.9-1.1c-0.8-0.2-1.6,0.3-1.6,1.2c0,1.7,0,3.5,0,5.2
	c0,0.1,0,0.1,0,0.2c0.1,0.6,0.7,1.1,1.4,1c0.6-0.1,1.1-0.6,1.1-1.2C24.9,19.2,24.9,18.3,24.9,17.4L24.9,17.4L24.9,17.4z"/>
<path class="st0" d="M16,0C7.2,0,0,7.2,0,16s7.2,16,16,16s16-7.2,16-16S24.8,0,16,0z M26.2,20.5c0,0-0.1,0-0.1,0
	c-0.2,0-0.3,0.1-0.4,0.3c-0.3,0.7-0.8,1.1-1.6,1.3c-0.1,0-0.2,0.1-0.2,0.2c-0.3,1-0.9,1.8-1.7,2.5c-1.4,1.1-3,1.7-4.7,2
	c-0.3,0-0.6,0.1-0.9,0.1c-0.1,0-0.2,0-0.3,0.2c-0.3,0.5-0.7,0.7-1.3,0.7c-0.4,0-0.8,0-1.2,0c-0.8,0-1.4-0.6-1.4-1.4
	c0-0.7,0.6-1.3,1.4-1.4c0.4,0,0.9,0,1.3,0c0.5,0,0.9,0.3,1.2,0.7c0.1,0.1,0.1,0.1,0.2,0.1c1.6-0.1,3.1-0.5,4.4-1.4
	c0.8-0.5,1.4-1.2,1.8-2c0-0.1,0.1-0.2,0.1-0.4c0-0.1-0.2-0.1-0.3-0.2c-0.8-0.4-1.2-1.1-1.2-2c0-1.7,0-3.5,0-5.2
	c0-0.7,0.3-1.3,0.9-1.7c0.1-0.1,0.1-0.1,0.1-0.2c-0.1-1.1-0.4-2.1-0.9-3c-0.8-1.3-1.9-2.3-3.3-2.8c-1.7-0.6-3.4-0.5-4.9,0.3
	c-2,1-3.1,2.7-3.5,4.8c0,0.2-0.1,0.5-0.1,0.7c0,0.1,0,0.1,0.1,0.2c0.6,0.5,0.9,1.1,0.9,1.8c0,1.7,0,3.4,0,5.1c0,1.1-0.8,2-1.8,2.2
	c-1.1,0.2-2.2-0.4-2.5-1.4c-0.1-0.2-0.1-0.2-0.3-0.2c-1-0.2-1.7-1-1.7-2c0-0.4,0-0.8,0-1.2c0-0.5,0-0.9,0.1-1.4
	c0.2-0.9,0.9-1.6,1.8-1.7c0.1,0,0.1,0,0.2-0.1c0.2-0.4,0.4-0.8,0.8-1.1c0.1-0.1,0.1-0.1,0.1-0.2c0.1-1.4,0.4-2.7,1.1-4
	C8.9,7.8,9.7,6.8,10.7,6c1.2-1,2.6-1.6,4.2-1.8c1.6-0.2,3.1,0,4.6,0.7c2.3,1,3.9,2.8,4.8,5.1c0.4,0.9,0.5,1.8,0.6,2.8
	c0,0.2,0,0.3,0.2,0.4c0.3,0.2,0.6,0.6,0.7,1c0,0.1,0.1,0.1,0.2,0.1c1,0.1,1.8,1,1.8,1.9c0,0.8,0,1.6,0,2.4
	C27.7,19.5,27,20.2,26.2,20.5L26.2,20.5z"/>
<path class="st1" d="M15.9,26.4"/>
<path class="st1" d="M12.9,26.4"/>
<path class="st1" d="M5.7,19.9"/>
<path class="st1" d="M5.7,15"/>
<path class="st1" d="M26.3,19.9"/>
<path class="st1" d="M26.3,15"/>
</svg>
