<svg id="Capa_1" data-name="Capa 1" xmlns="http://www.w3.org/2000/svg" viewBox="0 0 32 32"><defs><style>.cls-1{fill:#29235c;}</style></defs><path class="cls-1" d="M31.34,11.37c-2-6-6.1-9.77-12.29-11a16,16,0,0,0-6.94,31.24,20.75,20.75,0,0,0,2.6.44h2.62a15.63,15.63,0,0,0,3.12-.59,15.89,15.89,0,0,0,11.3-12.35c.12-.57.17-1.15.25-1.72V14.72A16,16,0,0,0,31.34,11.37ZM12.52,24.7a1.76,1.76,0,0,1,0-3.52,1.76,1.76,0,1,1,0,3.52Zm8.67,0a1.76,1.76,0,0,1,0-3.52,1.76,1.76,0,1,1,0,3.52Zm3.37-14.27-1.08,2c-.65,1.17-1.3,2.33-1.93,3.5a1.84,1.84,0,0,1-1.76,1c-2,0-4,0-6,0a.47.47,0,0,0-.49.29c-.17.36-.38.7-.57,1s-.19.35.19.35h9a.9.9,0,0,1,1,.89.91.91,0,0,1-1,.9H12.65a1.78,1.78,0,0,1-1.87-1.62A1.74,1.74,0,0,1,11,17.66l1-1.78a.41.41,0,0,0,0-.44c-1-2-1.93-4.07-2.89-6.11a.34.34,0,0,0-.35-.21,5.61,5.61,0,0,1-.58,0,.9.9,0,0,1-.91-1,.86.86,0,0,1,.94-.83H9.58a.88.88,0,0,1,.87.55,8.41,8.41,0,0,1,.37.81.52.52,0,0,0,.58.37H23.54a1.59,1.59,0,0,1,.38,0A.9.9,0,0,1,24.56,10.43Z"/></svg>