<?xml version="1.0" encoding="UTF-8"?>
<svg id="Capa_1" data-name="Capa 1" xmlns="http://www.w3.org/2000/svg" viewBox="0 0 32 32">
  <defs>
    <style>
      .cls-1 {
        fill: #2a285a;
        stroke-width: 0px;
      }
    </style>
  </defs>
  <path class="cls-1" d="M11.47,15.82c-1.8-1.78-3.6-3.58-5.39-5.37-.04-.04-.07-.11-.16-.11v11.35c.08-.07.13-.12.18-.17,1.79-1.78,3.58-3.55,5.37-5.33.15-.15.16-.23,0-.38Z"/>
  <path class="cls-1" d="M23.44,21.04c-1.31-1.3-2.61-2.6-3.92-3.9-.12-.12-.2-.13-.32,0-.3.32-.62.63-.94.93-1.06.98-2.71,1.15-3.95.42-.57-.33-.98-.84-1.45-1.29-.23-.21-.22-.22-.44,0-1.62,1.61-3.24,3.22-4.86,4.82-.21.21-.43.42-.67.67h18.21c-.08-.09-.13-.14-.18-.19-.49-.49-.99-.97-1.48-1.46Z"/>
  <path class="cls-1" d="M8.9,11.29c1.87,1.86,3.73,3.72,5.6,5.57.91.9,2.1.91,3,.01,2.49-2.47,4.98-4.95,7.47-7.43.04-.04.11-.06.09-.14H6.91c.08.09.13.14.18.19.6.6,1.21,1.19,1.81,1.79Z"/>
  <path class="cls-1" d="M16,0C7.2,0,0,7.2,0,16s7.2,16,16,16,16-7.2,16-16S24.8,0,16,0ZM26.7,23.65c-.35.25-.72.41-1.16.42-.07,0-.13,0-.2,0-6.22,0-12.44,0-18.66,0-.7,0-1.28-.24-1.72-.79-.25-.32-.42-.68-.42-1.09,0-4.13-.01-8.26,0-12.4,0-.96.91-1.83,1.87-1.87.09,0,.18,0,.27,0,6.22,0,12.44,0,18.66,0,.72,0,1.3.26,1.75.82.19.24.27.53.38.81v12.89c-.15.47-.36.9-.77,1.2Z"/>
  <path class="cls-1" d="M20.49,15.87c-.12.12-.09.18.01.29.46.45.92.9,1.37,1.35,1.34,1.34,2.69,2.67,4.03,4.01.05.05.1.13.19.15v-11.33c-.06,0-.08.03-.1.05-1.83,1.83-3.67,3.66-5.5,5.48Z"/>
</svg>