<svg id="Capa_1" data-name="Capa 1" xmlns="http://www.w3.org/2000/svg" viewBox="0 0 32 32"><defs><style>.cls-1{fill:#29235c;}</style></defs><path class="cls-1" d="M31.34,11.36c-2-6-6.1-9.77-12.29-11a16,16,0,0,0-6.94,31.24,20.75,20.75,0,0,0,2.6.44h2.62a15.63,15.63,0,0,0,3.12-.59,15.89,15.89,0,0,0,11.3-12.35c.12-.57.17-1.15.25-1.73V14.71A16,16,0,0,0,31.34,11.36ZM22.15,23.84a1.21,1.21,0,0,1-1.17.87,1.16,1.16,0,0,1-1.1-.94c-.06-.32-.07-.66-.13-1a3.81,3.81,0,0,0-4-3.07A3.86,3.86,0,0,0,12.25,23c0,.24,0,.48-.07.71a1.17,1.17,0,0,1-1.24,1,1.21,1.21,0,0,1-1.1-1.28,6.24,6.24,0,0,1,1.9-4.34,3.23,3.23,0,0,1,.4-.35c.21-.14.22-.25,0-.41A6.06,6.06,0,0,1,10.35,16a6.18,6.18,0,0,1,4-8.38A8.15,8.15,0,0,1,16,7.33a6.18,6.18,0,0,1,6.15,5.39A6,6,0,0,1,20,18.25c-.32.28-.32.27,0,.53a6,6,0,0,1,2.2,4.29A2,2,0,0,1,22.15,23.84Z"/><path class="cls-1" d="M16,9.73a3.8,3.8,0,1,0,3.78,3.82A3.75,3.75,0,0,0,16,9.73Z"/></svg>