<?xml version="1.0" encoding="UTF-8"?>
<svg id="Capa_1" data-name="Capa 1" xmlns="http://www.w3.org/2000/svg" viewBox="0 0 32 32">
  <defs>
    <style>
      .cls-1 {
        fill: #2a285a;
        stroke-width: 0px;
      }
    </style>
  </defs>
  <path class="cls-1" d="M16,0C7.2,0,0,7.2,0,16s7.2,16,16,16,16-7.2,16-16S24.8,0,16,0ZM17.83,24.95c-2.06.41-4.04.14-5.92-.8-.19-.1-.36-.11-.57-.06-1.4.37-2.8.74-4.2,1.1-.38.1-.39.09-.28-.3.38-1.37.75-2.75,1.13-4.12.05-.18.04-.33-.05-.5-.8-1.49-1.17-3.09-1.09-4.79.23-4.43,3.53-8,7.8-8.64,5.08-.77,9.76,2.73,10.49,7.82.06.42.08.84.07,1.2.06,4.26-2.97,8.19-7.37,9.07Z"/>
  <path class="cls-1" d="M16.03,8.37c-1.1-.02-2.16.2-3.15.68-2.68,1.3-4.17,3.46-4.42,6.42-.14,1.64.29,3.17,1.18,4.56.1.16.13.31.07.49-.21.72-.4,1.44-.6,2.17-.09.33-.08.34.24.26.72-.19,1.45-.37,2.17-.58.24-.07.42-.03.63.09,1.61.95,3.34,1.26,5.17.94,4.01-.7,6.83-4.5,6.16-8.69-.59-3.69-3.84-6.38-7.48-6.33ZM19.19,20.54c-.62.23-1.24.1-1.86-.1-2.37-.75-4.06-2.32-5.31-4.41-.3-.5-.57-1.01-.7-1.59-.06-.24-.09-.47-.08-.66,0-.91.34-1.6.98-2.15.55-.47,1.41-.25,1.66.41.2.53.39,1.06.6,1.59.09.24.07.44-.09.63-.16.19-.33.37-.49.57-.23.28-.24.39-.06.7.68,1.18,1.62,2.08,2.85,2.68.38.19.52.16.81-.15.2-.23.41-.46.6-.7.15-.18.31-.25.53-.15.67.31,1.32.66,1.97,1.03.15.09.19.22.18.38-.07.98-.39,1.49-1.56,1.92Z"/>
</svg>