<svg id="Capa_1" data-name="Capa 1" xmlns="http://www.w3.org/2000/svg" viewBox="0 0 32 32"><defs><style>.cls-1{fill:#36a9e1;}.cls-2{fill:#29235c;}</style></defs><rect class="cls-1" x="6.2" y="6.18" width="19.61" height="19.61"/><path class="cls-2" d="M16,0A16,16,0,1,0,32,16,16,16,0,0,0,16,0Zm9.21,14.4a1.64,1.64,0,0,1-.51.66l-3.63,3.18a.35.35,0,0,0-.13.4c.38,1.66.75,3.31,1.12,5a1,1,0,0,1-1.44,1.09c-.61-.35-1.21-.71-1.81-1.07L16.16,22a.24.24,0,0,0-.3,0c-1.44.87-2.88,1.72-4.31,2.59a1,1,0,0,1-1.47-.3,1,1,0,0,1-.13-.7l1.14-5a.31.31,0,0,0-.11-.35l-3.4-3c-.15-.12-.29-.25-.43-.38a1,1,0,0,1-.29-1.11,1,1,0,0,1,.92-.66l3.11-.28,1.94-.18a.26.26,0,0,0,.25-.19c.65-1.54,1.32-3.09,2-4.63a1,1,0,0,1,1.91,0l2,4.64a.27.27,0,0,0,.25.2l1.86.17,1.8.17c.43,0,.86.09,1.29.11a1.1,1.1,0,0,1,1.07.77Z"/><path class="cls-2" d="M21.69,14.11l-2.23-.21c-.25,0-.5,0-.75-.07a1.08,1.08,0,0,1-.81-.76L16.1,8.86s0-.13-.09-.13-.07.08-.09.13l-.84,2-1,2.32a1,1,0,0,1-.89.68l-1.6.15-2.27.2-.86.08s-.11,0-.12.05,0,.08.08.11l.46.4c1,.89,2,1.79,3,2.67a1.12,1.12,0,0,1,.37,1.19c-.35,1.5-.68,3-1,4.5,0,0-.08.13,0,.17s.11,0,.16-.06l4-2.38a1.07,1.07,0,0,1,1.21,0l4,2.39s.09.08.14.05,0-.09,0-.14c-.34-1.51-.68-3-1-4.53a1.1,1.1,0,0,1,.38-1.19c.64-.55,1.27-1.11,1.9-1.67l1.75-1.53-.29,0Z"/></svg>