<svg id="Capa_1" data-name="Capa 1" xmlns="http://www.w3.org/2000/svg" viewBox="0 0 32 32"><defs><style>.cls-1{fill:#fff;}</style></defs><path d="M0,15.68a14,14,0,0,1,1.61-2.07A26.1,26.1,0,0,1,7.83,8.36a16.43,16.43,0,0,1,6.6-2.3,14.6,14.6,0,0,1,7.21,1.05,21.92,21.92,0,0,1,6.69,4.39,26.81,26.81,0,0,1,3.43,3.79,1.2,1.2,0,0,1,0,1.44,25.2,25.2,0,0,1-9.43,7.89A15.12,15.12,0,0,1,17.09,26,15.36,15.36,0,0,1,8,23.73,26.52,26.52,0,0,1,.29,16.81c-.11-.14-.19-.3-.29-.45Z"/><path class="cls-1" d="M10,16a6,6,0,0,1,12.08,0A6,6,0,1,1,10,16Zm2.09,0A3.95,3.95,0,1,0,16,12.07,3.92,3.92,0,0,0,12.06,16Z"/></svg>