<svg id="Capa_1" data-name="Capa 1" xmlns="http://www.w3.org/2000/svg" viewBox="0 0 32 32"><path d="M0,15.67A14,14,0,0,1,1.62,13.6,25.9,25.9,0,0,1,7.84,8.35a16.38,16.38,0,0,1,6.6-2.3,14.6,14.6,0,0,1,7.21,1,22,22,0,0,1,6.69,4.39,26.74,26.74,0,0,1,3.42,3.79,1.19,1.19,0,0,1,0,1.44,25.27,25.27,0,0,1-9.43,7.89A15.12,15.12,0,0,1,17.09,26,15.35,15.35,0,0,1,8,23.72,26.52,26.52,0,0,1,.3,16.8,4.3,4.3,0,0,1,0,16.35ZM15.83,8.06A11.75,11.75,0,0,0,11.36,9a20,20,0,0,0-5.81,3.65,24.32,24.32,0,0,0-3,3.14.34.34,0,0,0,0,.51c.35.39.68.81,1,1.2a22.32,22.32,0,0,0,7.32,5.37,12.52,12.52,0,0,0,5.85,1.1A13.45,13.45,0,0,0,22,22.43a24,24,0,0,0,7.51-6.19c.17-.2.11-.33,0-.51a24.3,24.3,0,0,0-6.94-5.87A13.34,13.34,0,0,0,15.83,8.06Z"/><path d="M10,16a6,6,0,1,1,6,6.05A6,6,0,0,1,10,16Zm2.1,0A3.95,3.95,0,1,0,16,12.06,3.91,3.91,0,0,0,12.07,16Z"/></svg>