<svg id="Capa_1" data-name="Capa 1" xmlns="http://www.w3.org/2000/svg" viewBox="0 0 553.33 608.92"><defs><style>.cls-1{fill:#94a3b8;}.cls-2{fill:#29235c;}.cls-3{fill:#36a9e1;}</style></defs><path class="cls-1" d="M50.87,70.92H502.46a50.87,50.87,0,0,1,50.87,50.87V558a50.87,50.87,0,0,1-50.87,50.87H50.87A50.88,50.88,0,0,1,0,558V121.8A50.87,50.87,0,0,1,50.87,70.92Z"/><path class="cls-2" d="M166.48,313V265.52h21.7a27.23,27.23,0,0,1,11.22,2.11,16.43,16.43,0,0,1,7.29,6.06,16.87,16.87,0,0,1,2.58,9.4,16,16,0,0,1-9.87,15.35,26.9,26.9,0,0,1-11.22,2.14H173.94l6-5.83V313Zm13.42-16.82-6-6.17h13.42q4.21,0,6.28-1.83a6.45,6.45,0,0,0,2.06-5.08,6.55,6.55,0,0,0-2.06-5.16q-2.07-1.83-6.28-1.83H173.94l6-6.17Z"/><path class="cls-2" d="M215.5,313V276.24h12.28V287L226,283.9a11.81,11.81,0,0,1,5.29-6.21,17.88,17.88,0,0,1,8.88-2.06v11.59c-.59-.09-1.1-.14-1.53-.17s-.89,0-1.39,0a9.34,9.34,0,0,0-6.37,2.13q-2.45,2.14-2.44,7V313Z"/><path class="cls-2" d="M264.33,313.6A24.54,24.54,0,0,1,253,311.12a18.64,18.64,0,0,1-7.53-6.78,18.19,18.19,0,0,1-2.68-9.79,18.51,18.51,0,0,1,2.61-9.8A18,18,0,0,1,252.6,278a23.49,23.49,0,0,1,20.27-.2,17.12,17.12,0,0,1,7.12,6.48,19.33,19.33,0,0,1,2.65,10.37c0,.45,0,1-.07,1.56s-.09,1.13-.14,1.63H253.34v-6.78h22.24L270.7,293a8.53,8.53,0,0,0-.91-4.34,7.18,7.18,0,0,0-2.72-2.85,8.49,8.49,0,0,0-8.07,0,6.89,6.89,0,0,0-2.67,2.88,9.41,9.41,0,0,0-.95,4.37v2a9.26,9.26,0,0,0,1.12,4.68,7.36,7.36,0,0,0,3.22,3,11.09,11.09,0,0,0,5,1,12.43,12.43,0,0,0,4.65-.78,13.9,13.9,0,0,0,3.83-2.41l6.78,7.05a16.94,16.94,0,0,1-6.51,4.44A24.83,24.83,0,0,1,264.33,313.6Z"/><path class="cls-2" d="M307.39,313.6a23.59,23.59,0,0,1-10.89-2.44,18.78,18.78,0,0,1-7.49-6.75,19.26,19.26,0,0,1,0-19.7A18.61,18.61,0,0,1,296.5,278a24,24,0,0,1,10.89-2.4,21.11,21.11,0,0,1,10.78,2.64,14.63,14.63,0,0,1,6.44,7.46l-10,5.09a9,9,0,0,0-3.19-3.77,7.63,7.63,0,0,0-4.13-1.18,8.22,8.22,0,0,0-4.07,1,7.25,7.25,0,0,0-2.88,2.95,9.77,9.77,0,0,0-1.05,4.72,10.12,10.12,0,0,0,1.05,4.81,7.14,7.14,0,0,0,2.88,3,8.23,8.23,0,0,0,4.07,1,7.55,7.55,0,0,0,4.13-1.19,9,9,0,0,0,3.19-3.76l10,5.09a14.67,14.67,0,0,1-6.44,7.46A21.11,21.11,0,0,1,307.39,313.6Z"/><path class="cls-2" d="M335.8,272.17a8.18,8.18,0,0,1-5.7-2,6.57,6.57,0,0,1,0-9.76,8.18,8.18,0,0,1,5.7-2,8.37,8.37,0,0,1,5.69,1.87,6,6,0,0,1,2.17,4.78,6.63,6.63,0,0,1-2.13,5.05A8.08,8.08,0,0,1,335.8,272.17ZM329.36,313V276.24h12.88V313Z"/><path class="cls-2" d="M369,313.6a22.79,22.79,0,0,1-10.71-2.44,18.68,18.68,0,0,1-7.36-6.75A18.49,18.49,0,0,1,358.31,278a25.19,25.19,0,0,1,21.46,0,17.85,17.85,0,0,1,10,16.52,18,18,0,0,1-10,16.61A23,23,0,0,1,369,313.6Zm0-10.24a7.64,7.64,0,0,0,4-1,7.14,7.14,0,0,0,2.75-3,10.57,10.57,0,0,0,1-4.78,10.13,10.13,0,0,0-1-4.72,7.27,7.27,0,0,0-2.75-2.95,7.64,7.64,0,0,0-4-1,7.56,7.56,0,0,0-3.9,1,7.48,7.48,0,0,0-2.78,2.95,9.77,9.77,0,0,0-1,4.72,10.19,10.19,0,0,0,1,4.78,7.33,7.33,0,0,0,2.78,3A7.57,7.57,0,0,0,369,303.36Z"/><rect class="cls-3" x="211.46" y="40.66" width="130.48" height="130.48"/><path class="cls-2" d="M289.44,48.91a43,43,0,0,0-24.55,7.18,43.79,43.79,0,0,0-13.77,14.37,46.63,46.63,0,0,1,7.51-1.39,3.81,3.81,0,0,0,2.53-1.33,36.79,36.79,0,0,1,35.47-11.51,37.92,37.92,0,0,1,17.56,65.4c-.39,0-.86.6-.93,1.2a41.66,41.66,0,0,1-1.46,8.38,44.31,44.31,0,0,0-22.62-82.3Z"/><path class="cls-2" d="M313.86,114.65c.33,0,.47,0,.67-.47v-.33a33.31,33.31,0,0,0,7.25-21.1A39.42,39.42,0,0,0,320.65,85a32.74,32.74,0,0,0-39.9-23.49l-.49.13a30.93,30.93,0,0,0-12,6.19s-.74.4-.6.8.6,0,1,0l3.52.46a49.14,49.14,0,0,1,39.93,36,33.73,33.73,0,0,1,1.46,8.52S313.53,114.58,313.86,114.65Z"/><path class="cls-2" d="M264.42,85.57A32.8,32.8,0,1,0,297,118.64v-.13A32.87,32.87,0,0,0,264.42,85.57ZM276.67,135a17.18,17.18,0,0,1-8.12,3.72,18.09,18.09,0,0,1-19.16-10.18,1.85,1.85,0,0,0-1.93-1.19h-2.67a2.59,2.59,0,0,1-2.72-2.46v-.07a2.79,2.79,0,0,1,2.46-2.66c.8,0,1.86.46,2.39-.34s0-1.59,0-2.39a15.58,15.58,0,0,1,0-3.86c0-.87,0-1.4-1.19-1.27h-1.2a2.59,2.59,0,0,1,0-5.12,14.94,14.94,0,0,1,3,0,1.8,1.8,0,0,0,2-1.2,18.45,18.45,0,0,1,12.84-10,17.06,17.06,0,0,1,14.11,3.4,2.72,2.72,0,0,1,1,3.72,1,1,0,0,1-.08.14,2.73,2.73,0,0,1-3.86.13l-.13-.13a12.32,12.32,0,0,0-17.31,1.91l-.06.08v.4c0,.4-.8.67-.6,1.07s.73,0,1.2,0h3.86a2.73,2.73,0,0,1,2.86,2.59v.07a2.67,2.67,0,0,1-2.78,2.54h-6.8a1.06,1.06,0,0,0-1.19.92.19.19,0,0,0,0,.08,23.22,23.22,0,0,0,0,5.65c0,1.07.6,1.27,1.53,1.2h6.65a2.57,2.57,0,1,1,0,5.12h-4.45c-.74,0-1,0-.47.87a12.52,12.52,0,0,0,16.77,3.86l1.66-1.2a2.6,2.6,0,1,1,3.66,3.68,2.32,2.32,0,0,1-.6.44Z"/><path class="cls-2" d="M276.67-.6A106.47,106.47,0,1,0,383.13,105.86h0A106.47,106.47,0,0,0,276.67-.6ZM297.49,154a2.47,2.47,0,0,1-2.59-2.32v-.14a2.59,2.59,0,0,1,5.12,0,2.46,2.46,0,0,1-2.46,2.46Zm-33.27,2.2a37.93,37.93,0,1,1,38-37.86v.06a38,38,0,0,1-38.06,37.8Zm74.46-58.09a69.14,69.14,0,0,1-2.13,9.85,49.17,49.17,0,0,1-25.82,30,3.86,3.86,0,0,0-1.93,1.87,34,34,0,0,1-2.06,3.92c-1,1.73-2.46,2.27-3.79,1.47a2.73,2.73,0,0,1-.88-3.76,2,2,0,0,1,.21-.3A39.82,39.82,0,0,0,307.94,126,43.35,43.35,0,0,0,298.42,90,41.83,41.83,0,0,0,270,74.32,43.26,43.26,0,0,0,227.1,93.75a42,42,0,0,0-7.39,22.56,44.32,44.32,0,0,0,37,45.65,43.24,43.24,0,0,0,30.2-5.33l1-.53a2.53,2.53,0,0,1,2.53,4.39,43,43,0,0,1-8.18,4.06,47.78,47.78,0,0,1-21.36,3.13,49.37,49.37,0,0,1-45.38-40.86,48.37,48.37,0,0,1,15-44.78,45.24,45.24,0,0,1,12.44-8.45,3.26,3.26,0,0,0,1.53-1.6,49,49,0,0,1,36.8-27.61l3.19-.46h9.45l3.93.59A49.06,49.06,0,0,1,336,77.12a52.27,52.27,0,0,1,2.59,11.51Z"/><path class="cls-2" d="M63.49,424.42v-23.6H54.21v-4.4H78v4.4H68.69v23.6Z"/><path class="cls-2" d="M89.25,424.7A13,13,0,0,1,83,423.28a10.2,10.2,0,0,1-4.12-3.9,10.92,10.92,0,0,1-1.46-5.64,11.09,11.09,0,0,1,1.42-5.66,10.24,10.24,0,0,1,3.92-3.86,11.52,11.52,0,0,1,5.7-1.4,11.31,11.31,0,0,1,5.56,1.36A9.85,9.85,0,0,1,97.89,408a11.74,11.74,0,0,1,1.4,5.84c0,.22,0,.46,0,.72s0,.52-.06.76H81.41V412H96.57l-2,1a6.17,6.17,0,0,0-.76-3.24,5.9,5.9,0,0,0-2.18-2.2,6.26,6.26,0,0,0-3.18-.8,6.33,6.33,0,0,0-3.22.8,5.76,5.76,0,0,0-2.16,2.22,6.84,6.84,0,0,0-.78,3.34v.8a6.48,6.48,0,0,0,.88,3.4,5.83,5.83,0,0,0,2.48,2.28,8,8,0,0,0,3.68.8,8.74,8.74,0,0,0,3.24-.56,6.88,6.88,0,0,0,2.56-1.76l2.68,3.08a9.44,9.44,0,0,1-3.62,2.58A12.93,12.93,0,0,1,89.25,424.7Z"/><path class="cls-2" d="M116.21,402.82a10.28,10.28,0,0,1,4.58,1,7.33,7.33,0,0,1,3.18,3.06,10.78,10.78,0,0,1,1.16,5.3v12.24h-5v-11.6a6,6,0,0,0-1.34-4.24,4.94,4.94,0,0,0-3.74-1.4,6.59,6.59,0,0,0-3.12.72,4.93,4.93,0,0,0-2.1,2.14,7.76,7.76,0,0,0-.74,3.58v10.8h-5V403.06h4.76v5.76l-.84-1.76a7.61,7.61,0,0,1,3.26-3.14A10.7,10.7,0,0,1,116.21,402.82Z"/><path class="cls-2" d="M141.57,424.7a13,13,0,0,1-6.22-1.42,10.2,10.2,0,0,1-4.12-3.9,10.92,10.92,0,0,1-1.46-5.64,11.09,11.09,0,0,1,1.42-5.66,10.24,10.24,0,0,1,3.92-3.86,11.52,11.52,0,0,1,5.7-1.4,11.31,11.31,0,0,1,5.56,1.36,9.85,9.85,0,0,1,3.84,3.84,11.74,11.74,0,0,1,1.4,5.84c0,.22,0,.46,0,.72s0,.52-.06.76h-17.8V412h15.16l-2,1a6.17,6.17,0,0,0-.76-3.24,5.9,5.9,0,0,0-2.18-2.2,6.26,6.26,0,0,0-3.18-.8,6.33,6.33,0,0,0-3.22.8,5.76,5.76,0,0,0-2.16,2.22,6.84,6.84,0,0,0-.78,3.34v.8a6.48,6.48,0,0,0,.88,3.4,5.83,5.83,0,0,0,2.48,2.28,8,8,0,0,0,3.68.8,8.74,8.74,0,0,0,3.24-.56,6.88,6.88,0,0,0,2.56-1.76l2.68,3.08a9.44,9.44,0,0,1-3.62,2.58A12.93,12.93,0,0,1,141.57,424.7Z"/><path class="cls-2" d="M183.37,402.82a10,10,0,0,1,4.54,1,7.21,7.21,0,0,1,3.1,3.06,11,11,0,0,1,1.12,5.3v12.24h-5v-11.6a6.24,6.24,0,0,0-1.24-4.24,4.52,4.52,0,0,0-3.56-1.4,5.75,5.75,0,0,0-2.9.72,4.92,4.92,0,0,0-2,2.12,7.92,7.92,0,0,0-.7,3.56v10.84h-5v-11.6a6.29,6.29,0,0,0-1.24-4.24,4.52,4.52,0,0,0-3.56-1.4,5.75,5.75,0,0,0-2.9.72,4.92,4.92,0,0,0-2,2.12,7.92,7.92,0,0,0-.7,3.56v10.84h-5V403.06h4.76v5.68l-.84-1.68a7.32,7.32,0,0,1,3.14-3.16,10,10,0,0,1,4.7-1.08,9.24,9.24,0,0,1,5.22,1.48,7.13,7.13,0,0,1,2.94,4.48l-2-.68a8.22,8.22,0,0,1,3.44-3.84A10.59,10.59,0,0,1,183.37,402.82Z"/><path class="cls-2" d="M208.17,424.7a11.77,11.77,0,0,1-5.84-1.42,10.45,10.45,0,0,1-4-3.9,11.52,11.52,0,0,1,0-11.3,10.49,10.49,0,0,1,4-3.86,12,12,0,0,1,5.84-1.4,12.22,12.22,0,0,1,5.9,1.4,10.52,10.52,0,0,1,4,3.84,11.7,11.7,0,0,1,0,11.32,10.38,10.38,0,0,1-4,3.9A12,12,0,0,1,208.17,424.7Zm0-4.28a6.59,6.59,0,0,0,3.28-.8,5.62,5.62,0,0,0,2.26-2.32,8.18,8.18,0,0,0,0-7.14,5.75,5.75,0,0,0-2.26-2.3,7,7,0,0,0-6.5,0,5.88,5.88,0,0,0-2.26,2.3,8,8,0,0,0,0,7.14,5.74,5.74,0,0,0,2.26,2.32A6.36,6.36,0,0,0,208.17,420.42Z"/><path class="cls-2" d="M231,424.7a18.55,18.55,0,0,1-5.14-.7,13,13,0,0,1-3.9-1.7l1.92-3.8a13.32,13.32,0,0,0,3.44,1.52,13.81,13.81,0,0,0,4,.6,6.87,6.87,0,0,0,3.42-.64,1.94,1.94,0,0,0,1.06-1.72,1.5,1.5,0,0,0-.72-1.34,5.78,5.78,0,0,0-1.88-.7c-.78-.16-1.64-.3-2.58-.44a27.85,27.85,0,0,1-2.84-.54,9.49,9.49,0,0,1-2.58-1,5.26,5.26,0,0,1-1.88-1.78,5.38,5.38,0,0,1-.72-3,5.58,5.58,0,0,1,1.16-3.54,7.41,7.41,0,0,1,3.26-2.32,13.82,13.82,0,0,1,5-.82,20.43,20.43,0,0,1,4.36.48,12,12,0,0,1,3.64,1.36l-1.92,3.8A10.44,10.44,0,0,0,235,407.2a14.64,14.64,0,0,0-3.06-.34,6.61,6.61,0,0,0-3.38.68,2,2,0,0,0-1.1,1.72,1.62,1.62,0,0,0,.72,1.44,5.67,5.67,0,0,0,1.88.76,22.75,22.75,0,0,0,2.58.46,23.34,23.34,0,0,1,2.82.54,12.2,12.2,0,0,1,2.58,1,5.13,5.13,0,0,1,1.9,1.74,5.33,5.33,0,0,1,.72,2.92,5.43,5.43,0,0,1-1.18,3.48,7.53,7.53,0,0,1-3.34,2.3A14.47,14.47,0,0,1,231,424.7Z"/><path class="cls-2" d="M256,424.42V394.74h5v29.68Z"/><path class="cls-2" d="M277.17,424.7a11.77,11.77,0,0,1-5.84-1.42,10.45,10.45,0,0,1-4-3.9,11.52,11.52,0,0,1,0-11.3,10.49,10.49,0,0,1,4-3.86,12,12,0,0,1,5.84-1.4,12.22,12.22,0,0,1,5.9,1.4,10.52,10.52,0,0,1,4,3.84,11.7,11.7,0,0,1,0,11.32,10.38,10.38,0,0,1-4,3.9A12,12,0,0,1,277.17,424.7Zm0-4.28a6.59,6.59,0,0,0,3.28-.8,5.62,5.62,0,0,0,2.26-2.32,8.18,8.18,0,0,0,0-7.14,5.75,5.75,0,0,0-2.26-2.3,7,7,0,0,0-6.5,0,5.88,5.88,0,0,0-2.26,2.3,8,8,0,0,0,0,7.14,5.74,5.74,0,0,0,2.26,2.32A6.36,6.36,0,0,0,277.17,420.42Z"/><path class="cls-2" d="M300,424.7a18.55,18.55,0,0,1-5.14-.7,13,13,0,0,1-3.9-1.7l1.92-3.8a13.32,13.32,0,0,0,3.44,1.52,13.81,13.81,0,0,0,4,.6,6.87,6.87,0,0,0,3.42-.64,1.94,1.94,0,0,0,1.06-1.72,1.5,1.5,0,0,0-.72-1.34,5.78,5.78,0,0,0-1.88-.7c-.78-.16-1.64-.3-2.58-.44a27.85,27.85,0,0,1-2.84-.54,9.49,9.49,0,0,1-2.58-1,5.26,5.26,0,0,1-1.88-1.78,5.38,5.38,0,0,1-.72-3,5.58,5.58,0,0,1,1.16-3.54,7.41,7.41,0,0,1,3.26-2.32,13.82,13.82,0,0,1,5-.82,20.43,20.43,0,0,1,4.36.48,12,12,0,0,1,3.64,1.36l-1.92,3.8A10.44,10.44,0,0,0,304,407.2a14.64,14.64,0,0,0-3.06-.34,6.61,6.61,0,0,0-3.38.68,2,2,0,0,0-1.1,1.72,1.62,1.62,0,0,0,.72,1.44,5.67,5.67,0,0,0,1.88.76,22.75,22.75,0,0,0,2.58.46,23.34,23.34,0,0,1,2.82.54,12.2,12.2,0,0,1,2.58,1,5.13,5.13,0,0,1,1.9,1.74,5.33,5.33,0,0,1,.72,2.92,5.43,5.43,0,0,1-1.18,3.48,7.53,7.53,0,0,1-3.34,2.3A14.47,14.47,0,0,1,300,424.7Z"/><path class="cls-2" d="M352,402.82a10,10,0,0,1,4.54,1,7.21,7.21,0,0,1,3.1,3.06,11.14,11.14,0,0,1,1.12,5.3v12.24h-5v-11.6a6.29,6.29,0,0,0-1.24-4.24,4.53,4.53,0,0,0-3.56-1.4,5.72,5.72,0,0,0-2.9.72,4.86,4.86,0,0,0-2,2.12,7.92,7.92,0,0,0-.7,3.56v10.84h-5v-11.6a6.29,6.29,0,0,0-1.24-4.24,4.53,4.53,0,0,0-3.56-1.4,5.72,5.72,0,0,0-2.9.72,4.86,4.86,0,0,0-2,2.12,7.92,7.92,0,0,0-.7,3.56v10.84h-5V403.06h4.76v5.68l-.84-1.68a7.26,7.26,0,0,1,3.14-3.16,10,10,0,0,1,4.7-1.08A9.24,9.24,0,0,1,342,404.3a7.13,7.13,0,0,1,2.94,4.48l-2-.68a8.22,8.22,0,0,1,3.44-3.84A10.59,10.59,0,0,1,352,402.82Z"/><path class="cls-2" d="M377.2,424.7a13,13,0,0,1-6.22-1.42,10.26,10.26,0,0,1-4.12-3.9,10.92,10.92,0,0,1-1.46-5.64,11.19,11.19,0,0,1,1.42-5.66,10.31,10.31,0,0,1,3.92-3.86,11.52,11.52,0,0,1,5.7-1.4,11.28,11.28,0,0,1,5.56,1.36,9.85,9.85,0,0,1,3.84,3.84,11.63,11.63,0,0,1,1.4,5.84c0,.22,0,.46,0,.72s0,.52-.06.76h-17.8V412h15.16l-2,1a6.08,6.08,0,0,0-.76-3.24,6,6,0,0,0-2.17-2.2,6.82,6.82,0,0,0-6.41,0,5.76,5.76,0,0,0-2.16,2.22,6.84,6.84,0,0,0-.78,3.34v.8a6.57,6.57,0,0,0,.88,3.4,5.88,5.88,0,0,0,2.48,2.28,8.07,8.07,0,0,0,3.68.8,8.74,8.74,0,0,0,3.24-.56,6.92,6.92,0,0,0,2.57-1.76l2.67,3.08a9.36,9.36,0,0,1-3.62,2.58A12.93,12.93,0,0,1,377.2,424.7Z"/><path class="cls-2" d="M389.84,432.46a11.47,11.47,0,0,1-2.66-.3,5.9,5.9,0,0,1-2.14-.94l1.44-3.72a4.87,4.87,0,0,0,2.92.84,2.65,2.65,0,0,0,2.12-.86,3.71,3.71,0,0,0,.76-2.54V403.06h5v21.76a7.77,7.77,0,0,1-1.94,5.58A7.15,7.15,0,0,1,389.84,432.46Zm4.92-32.92a3.14,3.14,0,0,1-2.3-.88,3,3,0,0,1,0-4.26,3.21,3.21,0,0,1,2.3-.86,3.3,3.3,0,0,1,2.3.82,2.68,2.68,0,0,1,.9,2.06,3,3,0,0,1-.88,2.22A3.09,3.09,0,0,1,394.76,399.54Z"/><path class="cls-2" d="M413.44,424.7a11.83,11.83,0,0,1-5.84-1.42,10.58,10.58,0,0,1-4-3.9,11.52,11.52,0,0,1,0-11.3,10.63,10.63,0,0,1,4-3.86,12,12,0,0,1,5.84-1.4,12.19,12.19,0,0,1,5.9,1.4,10.45,10.45,0,0,1,4,3.84,11.7,11.7,0,0,1,0,11.32,10.31,10.31,0,0,1-4,3.9A12,12,0,0,1,413.44,424.7Zm0-4.28a6.56,6.56,0,0,0,3.28-.8A5.56,5.56,0,0,0,419,417.3a8.18,8.18,0,0,0,0-7.14,5.69,5.69,0,0,0-2.26-2.3,7,7,0,0,0-6.5,0,6,6,0,0,0-2.26,2.3,8,8,0,0,0,0,7.14,5.81,5.81,0,0,0,2.26,2.32A6.39,6.39,0,0,0,413.44,420.42Z"/><path class="cls-2" d="M429.64,424.42V403.06h4.76v5.88l-.56-1.72a6.79,6.79,0,0,1,3-3.28,10.77,10.77,0,0,1,5.14-1.12v4.76a4.69,4.69,0,0,0-.6-.1l-.56,0a6.18,6.18,0,0,0-4.52,1.66,6.67,6.67,0,0,0-1.68,4.94v10.36Z"/><path class="cls-2" d="M456.08,424.7a13,13,0,0,1-6.22-1.42,10.26,10.26,0,0,1-4.12-3.9,10.92,10.92,0,0,1-1.46-5.64,11.19,11.19,0,0,1,1.42-5.66,10.31,10.31,0,0,1,3.92-3.86,11.52,11.52,0,0,1,5.7-1.4,11.28,11.28,0,0,1,5.56,1.36,9.85,9.85,0,0,1,3.84,3.84,11.63,11.63,0,0,1,1.4,5.84c0,.22,0,.46,0,.72s0,.52-.06.76h-17.8V412H463.4l-2,1a6.08,6.08,0,0,0-.76-3.24,5.9,5.9,0,0,0-2.18-2.2,6.26,6.26,0,0,0-3.18-.8,6.36,6.36,0,0,0-3.22.8,5.76,5.76,0,0,0-2.16,2.22,6.84,6.84,0,0,0-.78,3.34v.8a6.57,6.57,0,0,0,.88,3.4,5.88,5.88,0,0,0,2.48,2.28,8.07,8.07,0,0,0,3.68.8,8.74,8.74,0,0,0,3.24-.56,6.8,6.8,0,0,0,2.56-1.76l2.68,3.08a9.36,9.36,0,0,1-3.62,2.58A12.93,12.93,0,0,1,456.08,424.7Z"/><path class="cls-2" d="M477.52,424.7a18.6,18.6,0,0,1-5.14-.7,13,13,0,0,1-3.9-1.7l1.92-3.8a13.47,13.47,0,0,0,3.44,1.52,13.91,13.91,0,0,0,4,.6,6.82,6.82,0,0,0,3.42-.64,1.93,1.93,0,0,0,1.06-1.72,1.5,1.5,0,0,0-.72-1.34,5.69,5.69,0,0,0-1.88-.7c-.77-.16-1.63-.3-2.58-.44s-1.89-.31-2.84-.54a9.75,9.75,0,0,1-2.58-1,5,5,0,0,1-2.6-4.74,5.64,5.64,0,0,1,1.16-3.54,7.47,7.47,0,0,1,3.26-2.32,13.82,13.82,0,0,1,5-.82,20.36,20.36,0,0,1,4.36.48,11.94,11.94,0,0,1,3.64,1.36l-1.92,3.8a10.23,10.23,0,0,0-3.06-1.26,14.49,14.49,0,0,0-3.06-.34,6.63,6.63,0,0,0-3.38.68,2,2,0,0,0-1.1,1.72,1.62,1.62,0,0,0,.72,1.44,5.76,5.76,0,0,0,1.88.76,23.58,23.58,0,0,0,2.58.46,22.62,22.62,0,0,1,2.82.54,11.8,11.8,0,0,1,2.58,1,5.05,5.05,0,0,1,1.9,1.74,6,6,0,0,1-.46,6.4,7.48,7.48,0,0,1-3.34,2.3A14.47,14.47,0,0,1,477.52,424.7Z"/><path class="cls-2" d="M63.77,480.18V451.06h4.76v5l-.16,5.68.4,5.68v12.72Zm11.84-7.48a9.54,9.54,0,0,1-4.74-1.2,8.47,8.47,0,0,1-3.4-3.62,13.23,13.23,0,0,1-1.26-6.14,13.64,13.64,0,0,1,1.22-6.16A8.24,8.24,0,0,1,70.77,452a9.85,9.85,0,0,1,4.84-1.18,11.25,11.25,0,0,1,5.58,1.36A10.22,10.22,0,0,1,85,456a12.43,12.43,0,0,1,0,11.54,10.06,10.06,0,0,1-3.84,3.82A11.14,11.14,0,0,1,75.61,472.7Zm-.56-4.28a6.39,6.39,0,0,0,3.22-.8,5.74,5.74,0,0,0,2.26-2.32,8,8,0,0,0,0-7.14,5.88,5.88,0,0,0-2.26-2.3,6.49,6.49,0,0,0-3.22-.8,6.59,6.59,0,0,0-3.24.8,5.86,5.86,0,0,0-2.28,2.3,8,8,0,0,0,0,7.14,5.73,5.73,0,0,0,2.28,2.32A6.49,6.49,0,0,0,75.05,468.42Z"/><path class="cls-2" d="M91.21,472.42V451.06H96v5.88l-.56-1.72a6.79,6.79,0,0,1,3-3.28,10.74,10.74,0,0,1,5.14-1.12v4.76a4.69,4.69,0,0,0-.6-.1l-.56,0a6.18,6.18,0,0,0-4.52,1.66,6.67,6.67,0,0,0-1.68,4.94v10.36Z"/><path class="cls-2" d="M117.65,472.7a13,13,0,0,1-6.22-1.42,10.2,10.2,0,0,1-4.12-3.9,10.92,10.92,0,0,1-1.46-5.64,11.09,11.09,0,0,1,1.42-5.66,10.24,10.24,0,0,1,3.92-3.86,11.52,11.52,0,0,1,5.7-1.4,11.31,11.31,0,0,1,5.56,1.36,9.85,9.85,0,0,1,3.84,3.84,11.74,11.74,0,0,1,1.4,5.84c0,.22,0,.46,0,.72s0,.52-.06.76h-17.8V460H125l-2,1a6.17,6.17,0,0,0-.76-3.24,5.9,5.9,0,0,0-2.18-2.2,6.26,6.26,0,0,0-3.18-.8,6.33,6.33,0,0,0-3.22.8,5.76,5.76,0,0,0-2.16,2.22,6.84,6.84,0,0,0-.78,3.34v.8a6.48,6.48,0,0,0,.88,3.4,5.83,5.83,0,0,0,2.48,2.28,8,8,0,0,0,3.68.8,8.74,8.74,0,0,0,3.24-.56,6.88,6.88,0,0,0,2.56-1.76l2.68,3.08a9.44,9.44,0,0,1-3.62,2.58A12.93,12.93,0,0,1,117.65,472.7Z"/><path class="cls-2" d="M142.29,472.7a12.32,12.32,0,0,1-6-1.42,10.4,10.4,0,0,1-4.1-3.9,11.52,11.52,0,0,1,0-11.3,10.45,10.45,0,0,1,4.1-3.86,12.54,12.54,0,0,1,6-1.4,11.59,11.59,0,0,1,5.5,1.26,8.41,8.41,0,0,1,3.62,3.7L147.57,458a6.17,6.17,0,0,0-2.34-2.24,6.34,6.34,0,0,0-3-.72,6.91,6.91,0,0,0-3.32.8,5.77,5.77,0,0,0-2.32,2.3,8,8,0,0,0,0,7.16,5.71,5.71,0,0,0,2.32,2.3,6.79,6.79,0,0,0,3.32.8,6.34,6.34,0,0,0,3-.72,6.09,6.09,0,0,0,2.34-2.24l3.84,2.24a8.62,8.62,0,0,1-3.62,3.7A11.26,11.26,0,0,1,142.29,472.7Z"/><path class="cls-2" d="M158.05,447.54a3.14,3.14,0,0,1-2.3-.88,3,3,0,0,1,0-4.26,3.21,3.21,0,0,1,2.3-.86,3.32,3.32,0,0,1,2.3.82,2.68,2.68,0,0,1,.9,2.06,3,3,0,0,1-.88,2.22A3.1,3.1,0,0,1,158.05,447.54Zm-2.52,24.88V451.06h5v21.36Z"/><path class="cls-2" d="M176.69,472.7a11.77,11.77,0,0,1-5.84-1.42,10.45,10.45,0,0,1-4-3.9,11.52,11.52,0,0,1,0-11.3,10.49,10.49,0,0,1,4-3.86,12,12,0,0,1,5.84-1.4,12.22,12.22,0,0,1,5.9,1.4,10.52,10.52,0,0,1,4,3.84,11.7,11.7,0,0,1,0,11.32,10.38,10.38,0,0,1-4,3.9A12,12,0,0,1,176.69,472.7Zm0-4.28a6.56,6.56,0,0,0,3.28-.8,5.62,5.62,0,0,0,2.26-2.32,8.18,8.18,0,0,0,0-7.14,5.75,5.75,0,0,0-2.26-2.3,7,7,0,0,0-6.5,0,5.88,5.88,0,0,0-2.26,2.3,8,8,0,0,0,0,7.14,5.74,5.74,0,0,0,2.26,2.32A6.39,6.39,0,0,0,176.69,468.42Z"/><path class="cls-2" d="M199.49,472.7a18.55,18.55,0,0,1-5.14-.7,13,13,0,0,1-3.9-1.7l1.92-3.8a13.32,13.32,0,0,0,3.44,1.52,13.81,13.81,0,0,0,4,.6,6.87,6.87,0,0,0,3.42-.64,1.94,1.94,0,0,0,1.06-1.72,1.5,1.5,0,0,0-.72-1.34,5.78,5.78,0,0,0-1.88-.7c-.78-.16-1.64-.3-2.58-.44a27.85,27.85,0,0,1-2.84-.54,9.49,9.49,0,0,1-2.58-1,5.26,5.26,0,0,1-1.88-1.78,5.38,5.38,0,0,1-.72-3,5.58,5.58,0,0,1,1.16-3.54,7.41,7.41,0,0,1,3.26-2.32,13.82,13.82,0,0,1,5-.82,20.43,20.43,0,0,1,4.36.48,12,12,0,0,1,3.64,1.36l-1.92,3.8a10.44,10.44,0,0,0-3.06-1.26,14.64,14.64,0,0,0-3.06-.34,6.61,6.61,0,0,0-3.38.68,2,2,0,0,0-1.1,1.72,1.62,1.62,0,0,0,.72,1.44,5.67,5.67,0,0,0,1.88.76,22.75,22.75,0,0,0,2.58.46,23.34,23.34,0,0,1,2.82.54,12.2,12.2,0,0,1,2.58,1,5.13,5.13,0,0,1,1.9,1.74,5.33,5.33,0,0,1,.72,2.92,5.43,5.43,0,0,1-1.18,3.48,7.53,7.53,0,0,1-3.34,2.3A14.47,14.47,0,0,1,199.49,472.7Z"/><path class="cls-2" d="M233.57,472.7a11.11,11.11,0,0,1-5.54-1.38,10,10,0,0,1-3.86-3.82,12.55,12.55,0,0,1,0-11.52,9.93,9.93,0,0,1,3.86-3.8,11.31,11.31,0,0,1,5.54-1.36,9.81,9.81,0,0,1,4.8,1.18,8.4,8.4,0,0,1,3.36,3.58,13.5,13.5,0,0,1,1.24,6.16,13.79,13.79,0,0,1-1.2,6.14,8.19,8.19,0,0,1-3.32,3.62A9.75,9.75,0,0,1,233.57,472.7Zm.6-4.28a6.39,6.39,0,0,0,3.22-.8,6,6,0,0,0,2.28-2.32,7.84,7.84,0,0,0,0-7.14,6.14,6.14,0,0,0-2.28-2.3,6.88,6.88,0,0,0-6.44,0,6,6,0,0,0-2.28,2.3,7.84,7.84,0,0,0,0,7.14,5.85,5.85,0,0,0,2.28,2.32A6.36,6.36,0,0,0,234.17,468.42Zm6.48,4v-5l.2-5.68-.4-5.68V442.74h5v29.68Z"/><path class="cls-2" d="M262.05,472.7a13,13,0,0,1-6.22-1.42,10.14,10.14,0,0,1-4.12-3.9,10.83,10.83,0,0,1-1.46-5.64,11.09,11.09,0,0,1,1.42-5.66,10.17,10.17,0,0,1,3.92-3.86,11.46,11.46,0,0,1,5.7-1.4,11.31,11.31,0,0,1,5.56,1.36,10,10,0,0,1,3.84,3.84,11.74,11.74,0,0,1,1.4,5.84c0,.22,0,.46,0,.72s0,.52-.06.76h-17.8V460h15.16l-2,1a6.26,6.26,0,0,0-.76-3.24,6,6,0,0,0-2.18-2.2,6.26,6.26,0,0,0-3.18-.8,6.33,6.33,0,0,0-3.22.8,5.76,5.76,0,0,0-2.16,2.22,6.84,6.84,0,0,0-.78,3.34v.8a6.48,6.48,0,0,0,.88,3.4,5.77,5.77,0,0,0,2.48,2.28,8,8,0,0,0,3.68.8,8.74,8.74,0,0,0,3.24-.56,6.88,6.88,0,0,0,2.56-1.76l2.68,3.08A9.44,9.44,0,0,1,267,471.8,13,13,0,0,1,262.05,472.7Z"/><path class="cls-2" d="M276.89,472.42V442.74h5v29.68Z"/><path class="cls-2" d="M306.09,472.7A18.55,18.55,0,0,1,301,472a13,13,0,0,1-3.9-1.7l1.92-3.8a13.32,13.32,0,0,0,3.44,1.52,13.81,13.81,0,0,0,4,.6,6.87,6.87,0,0,0,3.42-.64,1.94,1.94,0,0,0,1.06-1.72,1.5,1.5,0,0,0-.72-1.34,5.78,5.78,0,0,0-1.88-.7c-.78-.16-1.64-.3-2.58-.44a27.85,27.85,0,0,1-2.84-.54,9.49,9.49,0,0,1-2.58-1,5.26,5.26,0,0,1-1.88-1.78,5.38,5.38,0,0,1-.72-3,5.58,5.58,0,0,1,1.16-3.54,7.41,7.41,0,0,1,3.26-2.32,13.82,13.82,0,0,1,5-.82,20.43,20.43,0,0,1,4.36.48,12,12,0,0,1,3.64,1.36l-1.92,3.8a10.44,10.44,0,0,0-3.06-1.26,14.64,14.64,0,0,0-3.06-.34,6.61,6.61,0,0,0-3.38.68,2,2,0,0,0-1.1,1.72,1.62,1.62,0,0,0,.72,1.44,5.67,5.67,0,0,0,1.88.76,22.75,22.75,0,0,0,2.58.46,23.34,23.34,0,0,1,2.82.54,12.2,12.2,0,0,1,2.58,1,5.13,5.13,0,0,1,1.9,1.74,5.33,5.33,0,0,1,.72,2.92,5.43,5.43,0,0,1-1.18,3.48,7.53,7.53,0,0,1-3.34,2.3A14.47,14.47,0,0,1,306.09,472.7Z"/><path class="cls-2" d="M330.13,472.7a13,13,0,0,1-6.22-1.42,10.14,10.14,0,0,1-4.12-3.9,10.83,10.83,0,0,1-1.46-5.64,11.09,11.09,0,0,1,1.42-5.66,10.17,10.17,0,0,1,3.92-3.86,11.46,11.46,0,0,1,5.7-1.4,11.31,11.31,0,0,1,5.56,1.36,10,10,0,0,1,3.84,3.84,11.74,11.74,0,0,1,1.4,5.84c0,.22,0,.46,0,.72s0,.52-.06.76h-17.8V460h15.16l-2,1a6.26,6.26,0,0,0-.76-3.24,6,6,0,0,0-2.18-2.2,6.26,6.26,0,0,0-3.18-.8,6.33,6.33,0,0,0-3.22.8,5.76,5.76,0,0,0-2.16,2.22,6.84,6.84,0,0,0-.78,3.34v.8a6.48,6.48,0,0,0,.88,3.4,5.77,5.77,0,0,0,2.48,2.28,8,8,0,0,0,3.68.8,8.74,8.74,0,0,0,3.24-.56,6.88,6.88,0,0,0,2.56-1.76l2.68,3.08a9.44,9.44,0,0,1-3.62,2.58A13,13,0,0,1,330.13,472.7Z"/><path class="cls-2" d="M354.77,472.7a12.29,12.29,0,0,1-6-1.42,10.34,10.34,0,0,1-4.1-3.9,11.52,11.52,0,0,1,0-11.3,10.38,10.38,0,0,1,4.1-3.86,12.51,12.51,0,0,1,6-1.4,11.59,11.59,0,0,1,5.5,1.26,8.46,8.46,0,0,1,3.62,3.7L360.05,458a6.17,6.17,0,0,0-2.34-2.24,6.37,6.37,0,0,0-3-.72,6.88,6.88,0,0,0-3.32.8,5.77,5.77,0,0,0-2.32,2.3,8,8,0,0,0,0,7.16,5.71,5.71,0,0,0,2.32,2.3,6.77,6.77,0,0,0,3.32.8,6.37,6.37,0,0,0,3-.72,6.09,6.09,0,0,0,2.34-2.24l3.84,2.24a8.67,8.67,0,0,1-3.62,3.7A11.26,11.26,0,0,1,354.77,472.7Z"/><path class="cls-2" d="M365.65,455.22v-4h14.24v4Zm10.87,17.48a7.6,7.6,0,0,1-5.44-1.82,7.09,7.09,0,0,1-1.91-5.38V446.34h5v19a3.33,3.33,0,0,0,.78,2.36,2.8,2.8,0,0,0,2.18.84,4.38,4.38,0,0,0,2.8-.88l1.4,3.56a5.93,5.93,0,0,1-2.16,1.08A9.79,9.79,0,0,1,376.52,472.7Z"/><path class="cls-2" d="M394.33,472.7a11.77,11.77,0,0,1-5.84-1.42,10.45,10.45,0,0,1-4-3.9,11.52,11.52,0,0,1,0-11.3,10.49,10.49,0,0,1,4-3.86,12,12,0,0,1,5.84-1.4,12.22,12.22,0,0,1,5.9,1.4,10.52,10.52,0,0,1,4,3.84,11.7,11.7,0,0,1,0,11.32,10.38,10.38,0,0,1-4,3.9A12,12,0,0,1,394.33,472.7Zm0-4.28a6.59,6.59,0,0,0,3.28-.8,5.62,5.62,0,0,0,2.26-2.32,8.18,8.18,0,0,0,0-7.14,5.75,5.75,0,0,0-2.26-2.3,7,7,0,0,0-6.5,0,5.88,5.88,0,0,0-2.26,2.3,8,8,0,0,0,0,7.14,5.74,5.74,0,0,0,2.26,2.32A6.36,6.36,0,0,0,394.33,468.42Z"/><path class="cls-2" d="M410.52,472.42V451.06h4.77v5.88l-.56-1.72a6.74,6.74,0,0,1,3-3.28,10.71,10.71,0,0,1,5.14-1.12v4.76a5.35,5.35,0,0,0-.6-.1l-.56,0a6.17,6.17,0,0,0-4.52,1.66,6.63,6.63,0,0,0-1.69,4.94v10.36Z"/><path class="cls-2" d="M440.12,480.46a9.72,9.72,0,0,1-3.12-.52,7.25,7.25,0,0,1-2.6-1.44l2-3.68a5.81,5.81,0,0,0,1.72,1.08,5,5,0,0,0,2,.4,3.34,3.34,0,0,0,2.2-.68,6.1,6.1,0,0,0,1.56-2.28l1.24-2.8.4-.6,8.08-18.88h4.8l-10,23.08a13.55,13.55,0,0,1-2.22,3.8,6.63,6.63,0,0,1-2.72,2A9.22,9.22,0,0,1,440.12,480.46Zm4.4-7.28-9.64-22.12h5.2l7.84,18.44Z"/><path class="cls-2" d="M467.24,472.7a10,10,0,0,1-4.2-.82,6.43,6.43,0,0,1-2.78-2.28,5.8,5.8,0,0,1-1-3.3,6.23,6.23,0,0,1,.86-3.24,5.86,5.86,0,0,1,2.82-2.28,13.41,13.41,0,0,1,5.2-.84h6.2v3.32h-5.84c-1.7,0-2.85.28-3.44.82a2.68,2.68,0,0,0-.88,2,2.54,2.54,0,0,0,1.08,2.16,4.91,4.91,0,0,0,3,.8,6.48,6.48,0,0,0,3.3-.84,4.68,4.68,0,0,0,2.1-2.48l.84,3a5.52,5.52,0,0,1-2.58,2.92A9.45,9.45,0,0,1,467.24,472.7Zm6.72-.28V468.1l-.28-.92v-7.56a4.44,4.44,0,0,0-1.32-3.42,5.73,5.73,0,0,0-4-1.22,11.59,11.59,0,0,0-3.54.56,8.94,8.94,0,0,0-2.94,1.56l-2-3.64a12,12,0,0,1,4.1-2,18.45,18.45,0,0,1,4.94-.66q4.65,0,7.18,2.22c1.7,1.48,2.54,3.77,2.54,6.86v12.52Z"/><path class="cls-2" d="M50.37,520.7a11.23,11.23,0,0,1-5.54-1.36A9.78,9.78,0,0,1,41,515.52,12.59,12.59,0,0,1,41,504a9.93,9.93,0,0,1,3.86-3.8,11.34,11.34,0,0,1,5.54-1.36A9.82,9.82,0,0,1,55.23,500a8.26,8.26,0,0,1,3.32,3.58,13.64,13.64,0,0,1,1.22,6.16,13.23,13.23,0,0,1-1.26,6.14,8.55,8.55,0,0,1-3.38,3.62A9.48,9.48,0,0,1,50.37,520.7Zm.56-4.28a6.49,6.49,0,0,0,3.24-.8,5.73,5.73,0,0,0,2.28-2.32,8,8,0,0,0,0-7.14,5.86,5.86,0,0,0-2.28-2.3,6.59,6.59,0,0,0-3.24-.8,6.49,6.49,0,0,0-3.22.8,5.88,5.88,0,0,0-2.26,2.3,8,8,0,0,0,0,7.14,5.74,5.74,0,0,0,2.26,2.32A6.39,6.39,0,0,0,50.93,516.42Zm6.28,11.76V515.46l.4-5.68-.16-5.68v-5h4.76v29.12Z"/><path class="cls-2" d="M77.81,520.7a10.79,10.79,0,0,1-4.8-1,7.29,7.29,0,0,1-3.24-3.12,10.89,10.89,0,0,1-1.16-5.3v-12.2h5v11.52a6.16,6.16,0,0,0,1.3,4.3,4.74,4.74,0,0,0,3.7,1.42,6.24,6.24,0,0,0,3.06-.72,5,5,0,0,0,2-2.16,7.75,7.75,0,0,0,.74-3.56v-10.8h5v21.36H84.69v-5.76l.84,1.76a7.35,7.35,0,0,1-3.16,3.18A9.54,9.54,0,0,1,77.81,520.7Z"/><path class="cls-2" d="M106.05,520.7a13,13,0,0,1-6.22-1.42,10.2,10.2,0,0,1-4.12-3.9,10.92,10.92,0,0,1-1.46-5.64,11.09,11.09,0,0,1,1.42-5.66,10.24,10.24,0,0,1,3.92-3.86,11.52,11.52,0,0,1,5.7-1.4,11.31,11.31,0,0,1,5.56,1.36,9.85,9.85,0,0,1,3.84,3.84,11.74,11.74,0,0,1,1.4,5.84c0,.22,0,.46,0,.72s0,.52-.06.76H98.21V508h15.16l-2,1a6.17,6.17,0,0,0-.76-3.24,5.9,5.9,0,0,0-2.18-2.2,6.26,6.26,0,0,0-3.18-.8,6.33,6.33,0,0,0-3.22.8,5.76,5.76,0,0,0-2.16,2.22,6.84,6.84,0,0,0-.78,3.34v.8a6.48,6.48,0,0,0,.88,3.4,5.83,5.83,0,0,0,2.48,2.28,8,8,0,0,0,3.68.8,8.74,8.74,0,0,0,3.24-.56,6.88,6.88,0,0,0,2.56-1.76l2.68,3.08A9.44,9.44,0,0,1,111,519.8,12.93,12.93,0,0,1,106.05,520.7Z"/><path class="cls-2" d="M138.53,520.7a18.55,18.55,0,0,1-5.14-.7,13,13,0,0,1-3.9-1.7l1.92-3.8a13.32,13.32,0,0,0,3.44,1.52,13.81,13.81,0,0,0,4,.6,6.87,6.87,0,0,0,3.42-.64,1.94,1.94,0,0,0,1.06-1.72,1.5,1.5,0,0,0-.72-1.34,5.78,5.78,0,0,0-1.88-.7c-.78-.16-1.64-.3-2.58-.44a27.85,27.85,0,0,1-2.84-.54,9.49,9.49,0,0,1-2.58-1,5.26,5.26,0,0,1-1.88-1.78,5.38,5.38,0,0,1-.72-3,5.58,5.58,0,0,1,1.16-3.54,7.41,7.41,0,0,1,3.26-2.32,13.82,13.82,0,0,1,5-.82,20.43,20.43,0,0,1,4.36.48,12,12,0,0,1,3.64,1.36l-1.92,3.8a10.44,10.44,0,0,0-3.06-1.26,14.64,14.64,0,0,0-3.06-.34,6.61,6.61,0,0,0-3.38.68,2,2,0,0,0-1.1,1.72,1.62,1.62,0,0,0,.72,1.44,5.67,5.67,0,0,0,1.88.76,22.75,22.75,0,0,0,2.58.46,23.34,23.34,0,0,1,2.82.54,12.2,12.2,0,0,1,2.58,1,5.13,5.13,0,0,1,1.9,1.74,5.33,5.33,0,0,1,.72,2.92,5.43,5.43,0,0,1-1.18,3.48,7.53,7.53,0,0,1-3.34,2.3A14.47,14.47,0,0,1,138.53,520.7Z"/><path class="cls-2" d="M162.13,520.7a11.77,11.77,0,0,1-5.84-1.42,10.45,10.45,0,0,1-4-3.9,11.52,11.52,0,0,1,0-11.3,10.49,10.49,0,0,1,4-3.86,12,12,0,0,1,5.84-1.4,12.22,12.22,0,0,1,5.9,1.4,10.52,10.52,0,0,1,4,3.84,11.7,11.7,0,0,1,0,11.32,10.38,10.38,0,0,1-4,3.9A12,12,0,0,1,162.13,520.7Zm0-4.28a6.59,6.59,0,0,0,3.28-.8,5.62,5.62,0,0,0,2.26-2.32,8.18,8.18,0,0,0,0-7.14,5.75,5.75,0,0,0-2.26-2.3,7,7,0,0,0-6.5,0,5.88,5.88,0,0,0-2.26,2.3,8,8,0,0,0,0,7.14,5.74,5.74,0,0,0,2.26,2.32A6.36,6.36,0,0,0,162.13,516.42Z"/><path class="cls-2" d="M205.29,498.82a10,10,0,0,1,4.54,1,7.21,7.21,0,0,1,3.1,3.06,11.14,11.14,0,0,1,1.12,5.3v12.24h-5v-11.6a6.29,6.29,0,0,0-1.24-4.24,4.53,4.53,0,0,0-3.56-1.4,5.72,5.72,0,0,0-2.9.72,4.86,4.86,0,0,0-2,2.12,7.92,7.92,0,0,0-.7,3.56v10.84h-5v-11.6a6.29,6.29,0,0,0-1.24-4.24,4.53,4.53,0,0,0-3.56-1.4,5.72,5.72,0,0,0-2.9.72,4.86,4.86,0,0,0-2,2.12,7.92,7.92,0,0,0-.7,3.56v10.84h-5V499.06h4.76v5.68l-.84-1.68a7.26,7.26,0,0,1,3.14-3.16,10,10,0,0,1,4.7-1.08,9.24,9.24,0,0,1,5.22,1.48,7.13,7.13,0,0,1,2.94,4.48l-2-.68a8.22,8.22,0,0,1,3.44-3.84A10.59,10.59,0,0,1,205.29,498.82Z"/><path class="cls-2" d="M230.09,520.7a11.77,11.77,0,0,1-5.84-1.42,10.45,10.45,0,0,1-4-3.9,11.52,11.52,0,0,1,0-11.3,10.49,10.49,0,0,1,4-3.86,12,12,0,0,1,5.84-1.4,12.22,12.22,0,0,1,5.9,1.4,10.52,10.52,0,0,1,4,3.84,11.7,11.7,0,0,1,0,11.32,10.38,10.38,0,0,1-4,3.9A12,12,0,0,1,230.09,520.7Zm0-4.28a6.59,6.59,0,0,0,3.28-.8,5.62,5.62,0,0,0,2.26-2.32,8.18,8.18,0,0,0,0-7.14,5.75,5.75,0,0,0-2.26-2.3,7,7,0,0,0-6.5,0,5.88,5.88,0,0,0-2.26,2.3,8,8,0,0,0,0,7.14,5.74,5.74,0,0,0,2.26,2.32A6.36,6.36,0,0,0,230.09,516.42Z"/><path class="cls-2" d="M252.89,520.7a18.55,18.55,0,0,1-5.14-.7,13,13,0,0,1-3.9-1.7l1.92-3.8a13.32,13.32,0,0,0,3.44,1.52,13.81,13.81,0,0,0,4,.6,6.87,6.87,0,0,0,3.42-.64,1.94,1.94,0,0,0,1.06-1.72,1.5,1.5,0,0,0-.72-1.34,5.78,5.78,0,0,0-1.88-.7c-.78-.16-1.64-.3-2.58-.44a27.85,27.85,0,0,1-2.84-.54,9.49,9.49,0,0,1-2.58-1,5.26,5.26,0,0,1-1.88-1.78,5.38,5.38,0,0,1-.72-3,5.58,5.58,0,0,1,1.16-3.54,7.41,7.41,0,0,1,3.26-2.32,13.82,13.82,0,0,1,5-.82,20.43,20.43,0,0,1,4.36.48,12,12,0,0,1,3.64,1.36l-1.92,3.8a10.44,10.44,0,0,0-3.06-1.26,14.64,14.64,0,0,0-3.06-.34,6.61,6.61,0,0,0-3.38.68,2,2,0,0,0-1.1,1.72,1.62,1.62,0,0,0,.72,1.44,5.67,5.67,0,0,0,1.88.76,22.75,22.75,0,0,0,2.58.46,23.34,23.34,0,0,1,2.82.54,12.2,12.2,0,0,1,2.58,1,5.13,5.13,0,0,1,1.9,1.74,5.33,5.33,0,0,1,.72,2.92,5.43,5.43,0,0,1-1.18,3.48,7.53,7.53,0,0,1-3.34,2.3A14.47,14.47,0,0,1,252.89,520.7Z"/><path class="cls-2" d="M275.09,503.22v-4h14.24v4Zm3.52,17.2V497.86a7.36,7.36,0,0,1,2-5.38,7.59,7.59,0,0,1,5.66-2,11.2,11.2,0,0,1,2.5.28,5.45,5.45,0,0,1,2,.88l-1.36,3.76a4.09,4.09,0,0,0-1.28-.66,5.3,5.3,0,0,0-1.48-.22,3.08,3.08,0,0,0-2.36.86,3.66,3.66,0,0,0-.8,2.58v2.4l.16,2.24v17.84Z"/><path class="cls-2" d="M298.73,520.7a10,10,0,0,1-4.2-.82,6.38,6.38,0,0,1-2.78-2.28,5.72,5.72,0,0,1-1-3.3,6.14,6.14,0,0,1,.86-3.24,5.77,5.77,0,0,1,2.82-2.28,13.38,13.38,0,0,1,5.2-.84h6.2v3.32H300c-1.71,0-2.86.28-3.44.82a2.65,2.65,0,0,0-.88,2,2.54,2.54,0,0,0,1.08,2.16,4.91,4.91,0,0,0,3,.8,6.53,6.53,0,0,0,3.3-.84,4.77,4.77,0,0,0,2.1-2.48l.84,3a5.52,5.52,0,0,1-2.58,2.92A9.48,9.48,0,0,1,298.73,520.7Zm6.72-.28V516.1l-.28-.92v-7.56a4.44,4.44,0,0,0-1.32-3.42,5.75,5.75,0,0,0-4-1.22,11.59,11.59,0,0,0-3.54.56,8.94,8.94,0,0,0-2.94,1.56l-2-3.64a11.77,11.77,0,0,1,4.1-2,18.35,18.35,0,0,1,4.94-.66q4.64,0,7.18,2.22t2.54,6.86v12.52Z"/><path class="cls-2" d="M316.57,520.42V490.74h5V504l-.4,5.68.16,5.68v5Zm11.84.28a9.63,9.63,0,0,1-4.84-1.2,8.23,8.23,0,0,1-3.34-3.62,13.51,13.51,0,0,1-1.22-6.14,13.23,13.23,0,0,1,1.26-6.16,8.42,8.42,0,0,1,3.4-3.58,9.69,9.69,0,0,1,4.74-1.18,11.3,11.3,0,0,1,5.58,1.36,10.22,10.22,0,0,1,3.84,3.8,12.39,12.39,0,0,1,0,11.52,10.28,10.28,0,0,1-3.84,3.82A11.1,11.1,0,0,1,328.41,520.7Zm-.56-4.28a6.39,6.39,0,0,0,3.22-.8,5.81,5.81,0,0,0,2.26-2.32,8,8,0,0,0,0-7.14,6,6,0,0,0-2.26-2.3,6.49,6.49,0,0,0-3.22-.8,6.59,6.59,0,0,0-3.24.8,5.86,5.86,0,0,0-2.28,2.3,8,8,0,0,0,0,7.14,5.73,5.73,0,0,0,2.28,2.32A6.49,6.49,0,0,0,327.85,516.42Z"/><path class="cls-2" d="M344,520.42V499.06h4.77v5.88l-.56-1.72a6.74,6.74,0,0,1,3-3.28,10.71,10.71,0,0,1,5.14-1.12v4.76a5.35,5.35,0,0,0-.6-.1l-.56,0a6.17,6.17,0,0,0-4.52,1.66,6.63,6.63,0,0,0-1.69,4.94v10.36Z"/><path class="cls-2" d="M363.13,495.54a3.13,3.13,0,0,1-2.3-.88,3,3,0,0,1,0-4.26,3.2,3.2,0,0,1,2.3-.86,3.32,3.32,0,0,1,2.3.82,2.68,2.68,0,0,1,.9,2.06,3.08,3.08,0,0,1-.88,2.22A3.12,3.12,0,0,1,363.13,495.54Zm-2.53,24.88V499.06h5v21.36Z"/><path class="cls-2" d="M382,520.7a12.32,12.32,0,0,1-6-1.42,10.47,10.47,0,0,1-4.1-3.9,11.52,11.52,0,0,1,0-11.3,10.52,10.52,0,0,1,4.1-3.86,12.54,12.54,0,0,1,6-1.4,11.56,11.56,0,0,1,5.5,1.26,8.36,8.36,0,0,1,3.62,3.7L387.24,506a6.17,6.17,0,0,0-2.34-2.24,6.34,6.34,0,0,0-3-.72,6.93,6.93,0,0,0-3.32.8,5.83,5.83,0,0,0-2.32,2.3,8,8,0,0,0,0,7.16,5.77,5.77,0,0,0,2.32,2.3,6.82,6.82,0,0,0,3.32.8,6.34,6.34,0,0,0,3-.72,6.09,6.09,0,0,0,2.34-2.24l3.84,2.24a8.56,8.56,0,0,1-3.62,3.7A11.24,11.24,0,0,1,382,520.7Z"/><path class="cls-2" d="M401.84,520.7a10,10,0,0,1-4.2-.82,6.43,6.43,0,0,1-2.78-2.28,5.8,5.8,0,0,1-1-3.3,6.23,6.23,0,0,1,.86-3.24,5.86,5.86,0,0,1,2.82-2.28,13.41,13.41,0,0,1,5.2-.84H409v3.32h-5.84c-1.7,0-2.85.28-3.44.82a2.68,2.68,0,0,0-.88,2,2.54,2.54,0,0,0,1.08,2.16,4.91,4.91,0,0,0,3,.8,6.48,6.48,0,0,0,3.3-.84,4.68,4.68,0,0,0,2.1-2.48l.84,3a5.52,5.52,0,0,1-2.58,2.92A9.45,9.45,0,0,1,401.84,520.7Zm6.72-.28V516.1l-.28-.92v-7.56A4.44,4.44,0,0,0,407,504.2a5.73,5.73,0,0,0-4-1.22,11.59,11.59,0,0,0-3.54.56,8.94,8.94,0,0,0-2.94,1.56l-2-3.64a12,12,0,0,1,4.1-2,18.45,18.45,0,0,1,4.94-.66q4.65,0,7.18,2.22c1.7,1.48,2.54,3.77,2.54,6.86v12.52Z"/><path class="cls-2" d="M431.8,498.82a10.25,10.25,0,0,1,4.58,1,7.33,7.33,0,0,1,3.18,3.06,10.67,10.67,0,0,1,1.16,5.3v12.24h-5v-11.6a5.91,5.91,0,0,0-1.34-4.24,4.94,4.94,0,0,0-3.74-1.4,6.59,6.59,0,0,0-3.12.72,5,5,0,0,0-2.1,2.14,7.76,7.76,0,0,0-.74,3.58v10.8h-5V499.06h4.76v5.76l-.84-1.76a7.66,7.66,0,0,1,3.26-3.14A10.73,10.73,0,0,1,431.8,498.82Z"/><path class="cls-2" d="M444.24,503.22v-4h14.24v4Zm10.88,17.48a7.58,7.58,0,0,1-5.44-1.82,7.05,7.05,0,0,1-1.92-5.38V494.34h5v19a3.33,3.33,0,0,0,.78,2.36,2.83,2.83,0,0,0,2.18.84,4.36,4.36,0,0,0,2.8-.88l1.4,3.56a5.77,5.77,0,0,1-2.16,1.08A9.67,9.67,0,0,1,455.12,520.7Z"/><path class="cls-2" d="M473.36,520.7a13,13,0,0,1-6.22-1.42,10.26,10.26,0,0,1-4.12-3.9,10.92,10.92,0,0,1-1.46-5.64,11.19,11.19,0,0,1,1.42-5.66,10.31,10.31,0,0,1,3.92-3.86,11.52,11.52,0,0,1,5.7-1.4,11.28,11.28,0,0,1,5.56,1.36A9.85,9.85,0,0,1,482,504a11.63,11.63,0,0,1,1.4,5.84c0,.22,0,.46,0,.72s0,.52-.06.76h-17.8V508h15.16l-2,1a6.08,6.08,0,0,0-.76-3.24,5.9,5.9,0,0,0-2.18-2.2,6.26,6.26,0,0,0-3.18-.8,6.36,6.36,0,0,0-3.22.8,5.76,5.76,0,0,0-2.16,2.22,6.84,6.84,0,0,0-.78,3.34v.8a6.57,6.57,0,0,0,.88,3.4,5.88,5.88,0,0,0,2.48,2.28,8.07,8.07,0,0,0,3.68.8,8.74,8.74,0,0,0,3.24-.56,6.8,6.8,0,0,0,2.56-1.76l2.68,3.08a9.36,9.36,0,0,1-3.62,2.58A12.93,12.93,0,0,1,473.36,520.7Z"/><path class="cls-2" d="M494.8,520.7a18.6,18.6,0,0,1-5.14-.7,13,13,0,0,1-3.9-1.7l1.92-3.8a13.47,13.47,0,0,0,3.44,1.52,13.91,13.91,0,0,0,4,.6,6.82,6.82,0,0,0,3.42-.64,1.93,1.93,0,0,0,1.06-1.72,1.5,1.5,0,0,0-.72-1.34,5.69,5.69,0,0,0-1.88-.7c-.77-.16-1.63-.3-2.58-.44s-1.89-.31-2.84-.54a9.75,9.75,0,0,1-2.58-1,5,5,0,0,1-2.6-4.74,5.64,5.64,0,0,1,1.16-3.54,7.47,7.47,0,0,1,3.26-2.32,13.82,13.82,0,0,1,5-.82,20.36,20.36,0,0,1,4.36.48,11.94,11.94,0,0,1,3.64,1.36l-1.92,3.8a10.23,10.23,0,0,0-3.06-1.26,14.49,14.49,0,0,0-3.06-.34,6.63,6.63,0,0,0-3.38.68,2,2,0,0,0-1.1,1.72,1.62,1.62,0,0,0,.72,1.44,5.76,5.76,0,0,0,1.88.76,23.58,23.58,0,0,0,2.58.46,22.62,22.62,0,0,1,2.82.54,11.8,11.8,0,0,1,2.58,1,5.05,5.05,0,0,1,1.9,1.74,6,6,0,0,1-.46,6.4,7.48,7.48,0,0,1-3.34,2.3A14.47,14.47,0,0,1,494.8,520.7Z"/><path class="cls-2" d="M510.4,520.7a3.38,3.38,0,0,1-2.32-5.74,3.44,3.44,0,0,1,4.64,0,3.34,3.34,0,0,1-2.32,5.74Z"/></svg>