<svg id="Capa_1" data-name="Capa 1" xmlns="http://www.w3.org/2000/svg" viewBox="0 0 553.33 608.92"><defs><style>.cls-1{fill:#94a3b8;}.cls-2{fill:#36a9e1;}.cls-3{fill:#29235c;}</style></defs><path class="cls-1" d="M50.88,70.92H502.46a50.87,50.87,0,0,1,50.87,50.87V558a50.87,50.87,0,0,1-50.87,50.87H50.88A50.88,50.88,0,0,1,0,558V121.8A50.87,50.87,0,0,1,50.88,70.92Z"/><rect class="cls-2" x="211.46" y="18.7" width="130.48" height="169.67" rx="47.65"/><path class="cls-3" d="M304.28,98.41H276.07a4.52,4.52,0,0,1-4.59-6c1.26-4.32,2.26-8.78,3.32-13.31s2.2-8.58,3.33-13.3v.33l-29.28,46.58s-.73.73-.46,1.19.8,0,1.26,0H278a4.14,4.14,0,0,1,4.39,3.6,5.12,5.12,0,0,1,0,2.46c-2.2,8.65-4.33,17.3-6.65,25.95h0l29.67-47.18C305.81,98.21,305,98.41,304.28,98.41Z"/><path class="cls-3" d="M276.67,0A106.46,106.46,0,1,0,383.13,106.46,106.46,106.46,0,0,0,276.67,0Zm39.92,97.41c-9.18,14.44-18.23,29-27.35,43.45q-10.31,16.3-20.42,32.54a6.7,6.7,0,0,1-2.8,2.73h-2.66a4.53,4.53,0,0,1-2.58-5.86.69.69,0,0,1,.05-.13c3.79-15.24,7.65-30.48,11.45-45.71.39-1.53.39-1.53-1.2-1.53H241a4.68,4.68,0,0,1-4.66-2.13,5.08,5.08,0,0,1,.6-5.26c9.19-14.44,18.23-28.94,27.35-43.45q10.24-16.31,20.43-32.54a6.71,6.71,0,0,1,2.79-2.72H290a4.52,4.52,0,0,1,2.59,5.85l-.06.13C289,58,285.12,73.19,281.32,88.5c-.39,1.53-.39,1.53,1.2,1.53H312.4A4.57,4.57,0,0,1,317,92.16,5,5,0,0,1,316.59,97.41Z"/><path class="cls-3" d="M136.91,313V265.52h21.7a27.23,27.23,0,0,1,11.22,2.11,16.33,16.33,0,0,1,7.29,6.06,16.87,16.87,0,0,1,2.58,9.4,15.77,15.77,0,0,1-9.87,15.22,27.75,27.75,0,0,1-11.22,2.07H144.37l6-5.63V313Zm13.43-16.82-6-6.17H157.8q4.2,0,6.27-1.83a6.42,6.42,0,0,0,2.07-5.08,6.53,6.53,0,0,0-2.07-5.16q-2.07-1.83-6.27-1.83H144.37l6-6.17ZM166.27,313,154.48,295.7h14.3L180.65,313Z"/><path class="cls-3" d="M197.74,313.6a16.93,16.93,0,0,1-7.46-1.49,11,11,0,0,1-4.65-4.07,10.76,10.76,0,0,1-1.59-5.76,10,10,0,0,1,1.73-5.87,10.79,10.79,0,0,1,5.32-3.8,27.4,27.4,0,0,1,9.29-1.32h8.68V298h-6.91q-3.12,0-4.38,1a3.54,3.54,0,0,0,0,5.43,5.56,5.56,0,0,0,3.52,1,7.23,7.23,0,0,0,3.83-1,6.13,6.13,0,0,0,2.55-3.22l1.76,4.75a9.49,9.49,0,0,1-4,5.73A13.92,13.92,0,0,1,197.74,313.6Zm10.85-.61v-6.85l-.88-1.69V291.83a6,6,0,0,0-1.87-4.71q-1.86-1.67-5.93-1.66a17.73,17.73,0,0,0-5.36.85,14.09,14.09,0,0,0-4.61,2.34l-4.34-8.75a24.75,24.75,0,0,1,7.49-3.15,34.89,34.89,0,0,1,8.72-1.12c6,0,10.59,1.36,13.86,4.1s4.92,7,4.92,12.85V313Z"/><path class="cls-3" d="M228.73,326.14v-49.9H241v6.24l-.07,12.13.68,12.21v19.32Zm23.12-12.54a14.81,14.81,0,0,1-8-2.07,12.85,12.85,0,0,1-5-6.24,28,28,0,0,1-1.73-10.68,30.06,30.06,0,0,1,1.62-10.74,12.31,12.31,0,0,1,4.92-6.21,15.37,15.37,0,0,1,8.24-2A18.11,18.11,0,0,1,261,278a17.26,17.26,0,0,1,6.51,6.57,22.33,22.33,0,0,1,0,20.18,16.92,16.92,0,0,1-6.51,6.57A18.29,18.29,0,0,1,251.85,313.6Zm-2.71-10.24a7.57,7.57,0,0,0,3.9-1,7.44,7.44,0,0,0,2.78-3,11.25,11.25,0,0,0,0-9.49,7.72,7.72,0,0,0-10.58-3,7.39,7.39,0,0,0-2.78,3,11.25,11.25,0,0,0,0,9.49,7.3,7.3,0,0,0,2.78,3A7.52,7.52,0,0,0,249.14,303.36Z"/><path class="cls-3" d="M282.29,272.17a8.14,8.14,0,0,1-5.69-2,6.57,6.57,0,0,1,0-9.76,8.14,8.14,0,0,1,5.69-2,8.42,8.42,0,0,1,5.7,1.87,6,6,0,0,1,2.17,4.78,6.6,6.6,0,0,1-2.14,5.05A8,8,0,0,1,282.29,272.17ZM275.85,313V276.24h12.89V313Z"/><path class="cls-3" d="M313.08,313.6a18.05,18.05,0,0,1-9.12-2.34,17.29,17.29,0,0,1-6.54-6.58,22,22,0,0,1,0-20.2,17.08,17.08,0,0,1,6.54-6.55,18.33,18.33,0,0,1,9.12-2.3,14.94,14.94,0,0,1,8,2,12.57,12.57,0,0,1,5,6.24,28.71,28.71,0,0,1,1.69,10.65,30.41,30.41,0,0,1-1.62,10.78,12.36,12.36,0,0,1-4.89,6.24A15.26,15.26,0,0,1,313.08,313.6Zm2.71-10.24a7.52,7.52,0,0,0,3.9-1,7.14,7.14,0,0,0,2.75-3,10.57,10.57,0,0,0,1-4.78,10.13,10.13,0,0,0-1-4.72,7.27,7.27,0,0,0-2.75-2.95,7.51,7.51,0,0,0-3.9-1,7.69,7.69,0,0,0-4,1,7.25,7.25,0,0,0-2.74,2.95,10,10,0,0,0-1,4.72,10.44,10.44,0,0,0,1,4.78,7.12,7.12,0,0,0,2.74,3A7.69,7.69,0,0,0,315.79,303.36Zm8.07,9.63v-6.31l.07-12.13-.68-12.14V262.67h12.88V313Z"/><path class="cls-3" d="M363.66,313.6a24.5,24.5,0,0,1-11.35-2.48,18.52,18.52,0,0,1-7.53-6.78,18.1,18.1,0,0,1-2.68-9.79,18.51,18.51,0,0,1,2.61-9.8,18.08,18.08,0,0,1,7.22-6.72,23.51,23.51,0,0,1,20.28-.2,17.12,17.12,0,0,1,7.12,6.48A19.32,19.32,0,0,1,382,294.68q0,.68-.06,1.56c-.05.59-.1,1.13-.14,1.63H352.68v-6.78h22.24L370,293a8.53,8.53,0,0,0-.92-4.34,7.16,7.16,0,0,0-2.71-2.85,8.49,8.49,0,0,0-8.07,0,7,7,0,0,0-2.68,2.88,9.54,9.54,0,0,0-1,4.37v2a9.37,9.37,0,0,0,1.12,4.68,7.47,7.47,0,0,0,3.22,3,11.13,11.13,0,0,0,5,1,12.43,12.43,0,0,0,4.65-.78,14.05,14.05,0,0,0,3.83-2.41l6.78,7.05a16.94,16.94,0,0,1-6.51,4.44A24.85,24.85,0,0,1,363.66,313.6Z"/><path class="cls-3" d="M385.7,313v-7.6l20.62-23.73,2.17,4.14H386.18v-9.56h32.75v7.52l-20.68,23.8-2.17-4.2h23.53V313Z"/><path class="cls-3" d="M88.71,424.82a20.76,20.76,0,0,1-6.28-.94,13.51,13.51,0,0,1-4.76-2.42l1.8-4a14.32,14.32,0,0,0,4.16,2.2,15,15,0,0,0,5.08.88,11,11,0,0,0,3.56-.48,4.28,4.28,0,0,0,2-1.3,3,3,0,0,0,.64-1.86A2.58,2.58,0,0,0,94,414.8a6.94,6.94,0,0,0-2.38-1.24c-1-.3-2.06-.59-3.24-.86s-2.38-.58-3.56-.94a14.4,14.4,0,0,1-3.24-1.4,6.89,6.89,0,0,1-2.38-2.3,6.65,6.65,0,0,1-.92-3.68,7.53,7.53,0,0,1,1.22-4.18,8.41,8.41,0,0,1,3.72-3A15.3,15.3,0,0,1,89.55,396a20.23,20.23,0,0,1,5,.64,14.63,14.63,0,0,1,4.32,1.84l-1.64,4a15.82,15.82,0,0,0-3.88-1.66,14.8,14.8,0,0,0-3.84-.54,10,10,0,0,0-3.5.52,4.25,4.25,0,0,0-2,1.36,3.11,3.11,0,0,0-.62,1.92,2.58,2.58,0,0,0,.9,2.06,6.26,6.26,0,0,0,2.36,1.22c1,.3,2.06.58,3.26.86s2.39.6,3.58.94a15.23,15.23,0,0,1,3.24,1.36,6.69,6.69,0,0,1,2.36,2.28,6.77,6.77,0,0,1,.9,3.64,7.51,7.51,0,0,1-1.22,4.14,8.41,8.41,0,0,1-3.74,3A15.47,15.47,0,0,1,88.71,424.82Z"/><path class="cls-3" d="M113.75,424.7a10.76,10.76,0,0,1-4.8-1,7.29,7.29,0,0,1-3.24-3.12,10.89,10.89,0,0,1-1.16-5.3v-12.2h5v11.52a6.16,6.16,0,0,0,1.3,4.3,4.74,4.74,0,0,0,3.7,1.42,6.24,6.24,0,0,0,3.06-.72,5,5,0,0,0,2-2.16,7.75,7.75,0,0,0,.74-3.56v-10.8h5v21.36h-4.76v-5.76l.84,1.76a7.35,7.35,0,0,1-3.16,3.18A9.54,9.54,0,0,1,113.75,424.7Z"/><path class="cls-3" d="M141.75,424.7a12.29,12.29,0,0,1-6-1.42,10.34,10.34,0,0,1-4.1-3.9,11.52,11.52,0,0,1,0-11.3,10.38,10.38,0,0,1,4.1-3.86,12.51,12.51,0,0,1,6-1.4,11.59,11.59,0,0,1,5.5,1.26,8.46,8.46,0,0,1,3.62,3.7L147,410a6.17,6.17,0,0,0-2.34-2.24,6.37,6.37,0,0,0-3-.72,6.88,6.88,0,0,0-3.32.8,5.77,5.77,0,0,0-2.32,2.3,8,8,0,0,0,0,7.16,5.71,5.71,0,0,0,2.32,2.3,6.77,6.77,0,0,0,3.32.8,6.37,6.37,0,0,0,3-.72,6.09,6.09,0,0,0,2.34-2.24l3.84,2.24a8.67,8.67,0,0,1-3.62,3.7A11.26,11.26,0,0,1,141.75,424.7Z"/><path class="cls-3" d="M164.23,424.7a10.73,10.73,0,0,1-4.8-1,7.29,7.29,0,0,1-3.24-3.12,10.77,10.77,0,0,1-1.16-5.3v-12.2h5v11.52a6.16,6.16,0,0,0,1.3,4.3,4.74,4.74,0,0,0,3.7,1.42,6.24,6.24,0,0,0,3.06-.72,5.08,5.08,0,0,0,2-2.16,7.75,7.75,0,0,0,.74-3.56v-10.8h5v21.36h-4.76v-5.76l.84,1.76a7.35,7.35,0,0,1-3.16,3.18A9.54,9.54,0,0,1,164.23,424.7Z"/><path class="cls-3" d="M182.43,424.42V403.06h4.76v5.88l-.56-1.72a6.74,6.74,0,0,1,3-3.28,10.71,10.71,0,0,1,5.14-1.12v4.76a5.35,5.35,0,0,0-.6-.1l-.56,0a6.17,6.17,0,0,0-4.52,1.66,6.67,6.67,0,0,0-1.68,4.94v10.36Z"/><path class="cls-3" d="M205.83,424.7a18.55,18.55,0,0,1-5.14-.7,13,13,0,0,1-3.9-1.7l1.92-3.8a13.32,13.32,0,0,0,3.44,1.52,13.81,13.81,0,0,0,4,.6,6.87,6.87,0,0,0,3.42-.64,1.94,1.94,0,0,0,1.06-1.72,1.5,1.5,0,0,0-.72-1.34,5.78,5.78,0,0,0-1.88-.7c-.78-.16-1.64-.3-2.58-.44a27.85,27.85,0,0,1-2.84-.54,9.49,9.49,0,0,1-2.58-1,5.26,5.26,0,0,1-1.88-1.78,5.38,5.38,0,0,1-.72-3,5.58,5.58,0,0,1,1.16-3.54,7.41,7.41,0,0,1,3.26-2.32,13.82,13.82,0,0,1,5-.82,20.43,20.43,0,0,1,4.36.48,12,12,0,0,1,3.64,1.36l-1.92,3.8a10.44,10.44,0,0,0-3.06-1.26,14.64,14.64,0,0,0-3.06-.34,6.61,6.61,0,0,0-3.38.68,2,2,0,0,0-1.1,1.72,1.62,1.62,0,0,0,.72,1.44,5.67,5.67,0,0,0,1.88.76,22.75,22.75,0,0,0,2.58.46,23.34,23.34,0,0,1,2.82.54,12.2,12.2,0,0,1,2.58,1,5.13,5.13,0,0,1,1.9,1.74,5.33,5.33,0,0,1,.72,2.92,5.43,5.43,0,0,1-1.18,3.48,7.53,7.53,0,0,1-3.34,2.3A14.47,14.47,0,0,1,205.83,424.7Z"/><path class="cls-3" d="M226.27,424.7a10,10,0,0,1-4.2-.82,6.38,6.38,0,0,1-2.78-2.28,5.72,5.72,0,0,1-1-3.3,6.14,6.14,0,0,1,.86-3.24,5.77,5.77,0,0,1,2.82-2.28,13.38,13.38,0,0,1,5.2-.84h6.2v3.32h-5.84c-1.71,0-2.86.28-3.44.82a2.65,2.65,0,0,0-.88,2,2.54,2.54,0,0,0,1.08,2.16,4.91,4.91,0,0,0,3,.8,6.53,6.53,0,0,0,3.3-.84,4.77,4.77,0,0,0,2.1-2.48l.84,3a5.52,5.52,0,0,1-2.58,2.92A9.48,9.48,0,0,1,226.27,424.7Zm6.72-.28V420.1l-.28-.92v-7.56a4.44,4.44,0,0,0-1.32-3.42,5.75,5.75,0,0,0-4-1.22,11.59,11.59,0,0,0-3.54.56,8.94,8.94,0,0,0-2.94,1.56l-2-3.64a11.77,11.77,0,0,1,4.1-2,18.35,18.35,0,0,1,4.94-.66q4.63,0,7.18,2.22t2.54,6.86v12.52Z"/><path class="cls-3" d="M244.11,424.42V394.74h5v29.68Z"/><path class="cls-3" d="M265.71,424.7a13,13,0,0,1-6.22-1.42,10.14,10.14,0,0,1-4.12-3.9,10.83,10.83,0,0,1-1.46-5.64,11.09,11.09,0,0,1,1.42-5.66,10.17,10.17,0,0,1,3.92-3.86,11.46,11.46,0,0,1,5.7-1.4,11.31,11.31,0,0,1,5.56,1.36,10,10,0,0,1,3.84,3.84,11.74,11.74,0,0,1,1.4,5.84c0,.22,0,.46,0,.72s0,.52-.06.76h-17.8V412H273l-2,1a6.26,6.26,0,0,0-.76-3.24,6,6,0,0,0-2.18-2.2,6.26,6.26,0,0,0-3.18-.8,6.33,6.33,0,0,0-3.22.8,5.76,5.76,0,0,0-2.16,2.22,6.84,6.84,0,0,0-.78,3.34v.8a6.48,6.48,0,0,0,.88,3.4,5.77,5.77,0,0,0,2.48,2.28,8,8,0,0,0,3.68.8,8.74,8.74,0,0,0,3.24-.56,6.88,6.88,0,0,0,2.56-1.76l2.68,3.08a9.44,9.44,0,0,1-3.62,2.58A13,13,0,0,1,265.71,424.7Z"/><path class="cls-3" d="M287.15,424.7A18.55,18.55,0,0,1,282,424a13,13,0,0,1-3.9-1.7l1.92-3.8a13.32,13.32,0,0,0,3.44,1.52,13.81,13.81,0,0,0,4,.6,6.87,6.87,0,0,0,3.42-.64,1.94,1.94,0,0,0,1.06-1.72,1.5,1.5,0,0,0-.72-1.34,5.78,5.78,0,0,0-1.88-.7c-.78-.16-1.64-.3-2.58-.44a27.85,27.85,0,0,1-2.84-.54,9.49,9.49,0,0,1-2.58-1,5.26,5.26,0,0,1-1.88-1.78,5.38,5.38,0,0,1-.72-3,5.58,5.58,0,0,1,1.16-3.54,7.41,7.41,0,0,1,3.26-2.32,13.82,13.82,0,0,1,5-.82,20.43,20.43,0,0,1,4.36.48,12,12,0,0,1,3.64,1.36l-1.92,3.8a10.44,10.44,0,0,0-3.06-1.26,14.64,14.64,0,0,0-3.06-.34,6.61,6.61,0,0,0-3.38.68,2,2,0,0,0-1.1,1.72,1.62,1.62,0,0,0,.72,1.44,5.67,5.67,0,0,0,1.88.76,22.75,22.75,0,0,0,2.58.46,23.34,23.34,0,0,1,2.82.54,12.2,12.2,0,0,1,2.58,1,5.13,5.13,0,0,1,1.9,1.74,5.33,5.33,0,0,1,.72,2.92,5.43,5.43,0,0,1-1.18,3.48,7.53,7.53,0,0,1-3.34,2.3A14.47,14.47,0,0,1,287.15,424.7Z"/><path class="cls-3" d="M322.23,424.7a13,13,0,0,1-6.22-1.42,10.14,10.14,0,0,1-4.12-3.9,10.83,10.83,0,0,1-1.46-5.64,11.09,11.09,0,0,1,1.42-5.66,10.17,10.17,0,0,1,3.92-3.86,11.46,11.46,0,0,1,5.7-1.4,11.31,11.31,0,0,1,5.56,1.36,10,10,0,0,1,3.84,3.84,11.74,11.74,0,0,1,1.4,5.84c0,.22,0,.46,0,.72s0,.52-.06.76h-17.8V412h15.16l-2,1a6.26,6.26,0,0,0-.76-3.24,6,6,0,0,0-2.18-2.2,6.26,6.26,0,0,0-3.18-.8,6.33,6.33,0,0,0-3.22.8,5.76,5.76,0,0,0-2.16,2.22,6.84,6.84,0,0,0-.78,3.34v.8a6.48,6.48,0,0,0,.88,3.4,5.77,5.77,0,0,0,2.48,2.28,8,8,0,0,0,3.68.8,8.74,8.74,0,0,0,3.24-.56,6.88,6.88,0,0,0,2.56-1.76l2.68,3.08a9.44,9.44,0,0,1-3.62,2.58A13,13,0,0,1,322.23,424.7Z"/><path class="cls-3" d="M349.19,402.82a10.31,10.31,0,0,1,4.58,1,7.44,7.44,0,0,1,3.18,3.06,10.78,10.78,0,0,1,1.16,5.3v12.24h-5v-11.6a6,6,0,0,0-1.34-4.24,5,5,0,0,0-3.74-1.4,6.53,6.53,0,0,0-3.12.72,4.93,4.93,0,0,0-2.1,2.14,7.63,7.63,0,0,0-.74,3.58v10.8h-5V403.06h4.76v5.76l-.84-1.76a7.55,7.55,0,0,1,3.26-3.14A10.67,10.67,0,0,1,349.19,402.82Z"/><path class="cls-3" d="M372.67,407.22v-4h14.24v4Zm10.87,17.48a7.56,7.56,0,0,1-5.43-1.82,7.05,7.05,0,0,1-1.92-5.38V398.34h5v19a3.33,3.33,0,0,0,.78,2.36,2.82,2.82,0,0,0,2.18.84,4.38,4.38,0,0,0,2.8-.88l1.4,3.56a5.93,5.93,0,0,1-2.16,1.08A9.79,9.79,0,0,1,383.54,424.7Z"/><path class="cls-3" d="M401.35,424.7a11.77,11.77,0,0,1-5.84-1.42,10.45,10.45,0,0,1-4-3.9,11.52,11.52,0,0,1,0-11.3,10.49,10.49,0,0,1,4-3.86,12,12,0,0,1,5.84-1.4,12.22,12.22,0,0,1,5.9,1.4,10.52,10.52,0,0,1,4,3.84,11.7,11.7,0,0,1,0,11.32,10.38,10.38,0,0,1-4,3.9A12,12,0,0,1,401.35,424.7Zm0-4.28a6.59,6.59,0,0,0,3.28-.8,5.62,5.62,0,0,0,2.26-2.32,8.18,8.18,0,0,0,0-7.14,5.75,5.75,0,0,0-2.26-2.3,7,7,0,0,0-6.5,0,5.88,5.88,0,0,0-2.26,2.3,8,8,0,0,0,0,7.14,5.74,5.74,0,0,0,2.26,2.32A6.36,6.36,0,0,0,401.35,420.42Z"/><path class="cls-3" d="M426.59,424.7a11.17,11.17,0,0,1-5.55-1.38,10,10,0,0,1-3.85-3.82,12.55,12.55,0,0,1,0-11.52,10,10,0,0,1,3.85-3.8,11.38,11.38,0,0,1,5.55-1.36,9.81,9.81,0,0,1,4.8,1.18,8.4,8.4,0,0,1,3.36,3.58,13.5,13.5,0,0,1,1.24,6.16,13.79,13.79,0,0,1-1.2,6.14,8.19,8.19,0,0,1-3.32,3.62A9.75,9.75,0,0,1,426.59,424.7Zm.6-4.28a6.39,6.39,0,0,0,3.22-.8,6,6,0,0,0,2.28-2.32,7.92,7.92,0,0,0,0-7.14,6.14,6.14,0,0,0-2.28-2.3,6.88,6.88,0,0,0-6.44,0,6,6,0,0,0-2.28,2.3,7.84,7.84,0,0,0,0,7.14,5.85,5.85,0,0,0,2.28,2.32A6.36,6.36,0,0,0,427.19,420.42Zm6.48,4v-5l.2-5.68-.4-5.68V394.74h5v29.68Z"/><path class="cls-3" d="M451.46,424.7a10,10,0,0,1-4.19-.82,6.32,6.32,0,0,1-2.78-2.28,5.73,5.73,0,0,1-1-3.3,6.14,6.14,0,0,1,.87-3.24,5.77,5.77,0,0,1,2.82-2.28,13.33,13.33,0,0,1,5.19-.84h6.2v3.32h-5.83c-1.71,0-2.86.28-3.45.82a2.67,2.67,0,0,0-.87,2,2.56,2.56,0,0,0,1.07,2.16,4.91,4.91,0,0,0,3,.8,6.48,6.48,0,0,0,3.3-.84,4.74,4.74,0,0,0,2.11-2.48l.84,3a5.52,5.52,0,0,1-2.58,2.92A9.49,9.49,0,0,1,451.46,424.7Zm6.73-.28V420.1l-.28-.92v-7.56a4.45,4.45,0,0,0-1.33-3.42,5.71,5.71,0,0,0-4-1.22,11.64,11.64,0,0,0-3.54.56,8.88,8.88,0,0,0-2.93,1.56l-2-3.64a11.91,11.91,0,0,1,4.11-2,18.35,18.35,0,0,1,4.94-.66q4.63,0,7.18,2.22t2.54,6.86v12.52Z"/><path class="cls-3" d="M64.35,468.06h15.8v4.36h-21v-28H79.59v4.36H64.35Zm-.4-12H77.87v4.28H64Z"/><path class="cls-3" d="M91.87,472.7a18.55,18.55,0,0,1-5.14-.7,13,13,0,0,1-3.9-1.7l1.92-3.8A13.32,13.32,0,0,0,88.19,468a13.81,13.81,0,0,0,4,.6,6.87,6.87,0,0,0,3.42-.64,1.94,1.94,0,0,0,1.06-1.72,1.5,1.5,0,0,0-.72-1.34,5.78,5.78,0,0,0-1.88-.7c-.78-.16-1.64-.3-2.58-.44a27.85,27.85,0,0,1-2.84-.54,9.49,9.49,0,0,1-2.58-1,5.26,5.26,0,0,1-1.88-1.78,5.38,5.38,0,0,1-.72-3A5.58,5.58,0,0,1,84.63,454a7.41,7.41,0,0,1,3.26-2.32,13.82,13.82,0,0,1,5-.82,20.43,20.43,0,0,1,4.36.48,12,12,0,0,1,3.64,1.36L99,456.46a10.44,10.44,0,0,0-3.06-1.26,14.64,14.64,0,0,0-3.06-.34,6.61,6.61,0,0,0-3.38.68,2,2,0,0,0-1.1,1.72,1.62,1.62,0,0,0,.72,1.44,5.67,5.67,0,0,0,1.88.76,22.75,22.75,0,0,0,2.58.46,23.34,23.34,0,0,1,2.82.54,12.2,12.2,0,0,1,2.58,1,5.13,5.13,0,0,1,1.9,1.74,5.33,5.33,0,0,1,.72,2.92,5.43,5.43,0,0,1-1.18,3.48,7.53,7.53,0,0,1-3.34,2.3A14.47,14.47,0,0,1,91.87,472.7Z"/><path class="cls-3" d="M105.87,480.18V451.06h4.76v5l-.16,5.68.4,5.68v12.72Zm11.84-7.48a9.49,9.49,0,0,1-4.74-1.2,8.47,8.47,0,0,1-3.4-3.62,13.23,13.23,0,0,1-1.26-6.14,13.51,13.51,0,0,1,1.22-6.16,8.18,8.18,0,0,1,3.34-3.58,9.83,9.83,0,0,1,4.84-1.18,11.3,11.3,0,0,1,5.58,1.36,10.22,10.22,0,0,1,3.84,3.8,12.43,12.43,0,0,1,0,11.54,10.06,10.06,0,0,1-3.84,3.82A11.2,11.2,0,0,1,117.71,472.7Zm-.56-4.28a6.39,6.39,0,0,0,3.22-.8,5.81,5.81,0,0,0,2.26-2.32,8,8,0,0,0,0-7.14,6,6,0,0,0-2.26-2.3,6.49,6.49,0,0,0-3.22-.8,6.59,6.59,0,0,0-3.24.8,5.86,5.86,0,0,0-2.28,2.3,8,8,0,0,0,0,7.14,5.73,5.73,0,0,0,2.28,2.32A6.49,6.49,0,0,0,117.15,468.42Z"/><path class="cls-3" d="M139.47,472.7a10,10,0,0,1-4.2-.82,6.38,6.38,0,0,1-2.78-2.28,5.72,5.72,0,0,1-1-3.3,6.14,6.14,0,0,1,.86-3.24,5.77,5.77,0,0,1,2.82-2.28,13.38,13.38,0,0,1,5.2-.84h6.2v3.32h-5.84c-1.71,0-2.85.28-3.44.82a2.65,2.65,0,0,0-.88,2,2.54,2.54,0,0,0,1.08,2.16,4.91,4.91,0,0,0,3,.8,6.53,6.53,0,0,0,3.3-.84,4.77,4.77,0,0,0,2.1-2.48l.84,3a5.52,5.52,0,0,1-2.58,2.92A9.48,9.48,0,0,1,139.47,472.7Zm6.72-.28V468.1l-.28-.92v-7.56a4.44,4.44,0,0,0-1.32-3.42,5.75,5.75,0,0,0-4-1.22,11.59,11.59,0,0,0-3.54.56,8.94,8.94,0,0,0-2.94,1.56l-2-3.64a11.77,11.77,0,0,1,4.1-2,18.35,18.35,0,0,1,4.94-.66q4.63,0,7.18,2.22t2.54,6.86v12.52Z"/><path class="cls-3" d="M169.43,450.82a10.31,10.31,0,0,1,4.58,1,7.44,7.44,0,0,1,3.18,3.06,10.78,10.78,0,0,1,1.16,5.3v12.24h-5v-11.6a6,6,0,0,0-1.34-4.24,5,5,0,0,0-3.74-1.4,6.53,6.53,0,0,0-3.12.72,4.93,4.93,0,0,0-2.1,2.14,7.63,7.63,0,0,0-.74,3.58v10.8h-5V451.06h4.76v5.76l-.84-1.76a7.55,7.55,0,0,1,3.26-3.14A10.67,10.67,0,0,1,169.43,450.82Zm1.28-2.68a3.83,3.83,0,0,1-1.74-.38,6.17,6.17,0,0,1-1.4-.92c-.42-.36-.81-.67-1.18-.94a2,2,0,0,0-1.12-.4,1.68,1.68,0,0,0-1.36.64,3.06,3.06,0,0,0-.6,1.76h-2.68a6.49,6.49,0,0,1,1.22-3.92,3.74,3.74,0,0,1,3.1-1.44,4,4,0,0,1,1.76.4,8.07,8.07,0,0,1,1.42.92,14.19,14.19,0,0,0,1.18.92,1.83,1.83,0,0,0,1.08.4,1.77,1.77,0,0,0,1.38-.6,2.59,2.59,0,0,0,.58-1.68H175a6.1,6.1,0,0,1-1.2,3.78A3.78,3.78,0,0,1,170.71,448.14Z"/><path class="cls-3" d="M191.15,472.7a10,10,0,0,1-4.2-.82,6.38,6.38,0,0,1-2.78-2.28,5.72,5.72,0,0,1-1-3.3,6.14,6.14,0,0,1,.86-3.24,5.77,5.77,0,0,1,2.82-2.28,13.38,13.38,0,0,1,5.2-.84h6.2v3.32h-5.84c-1.71,0-2.86.28-3.44.82a2.65,2.65,0,0,0-.88,2,2.54,2.54,0,0,0,1.08,2.16,4.91,4.91,0,0,0,3,.8,6.53,6.53,0,0,0,3.3-.84,4.77,4.77,0,0,0,2.1-2.48l.84,3a5.52,5.52,0,0,1-2.58,2.92A9.48,9.48,0,0,1,191.15,472.7Zm6.72-.28V468.1l-.28-.92v-7.56a4.44,4.44,0,0,0-1.32-3.42,5.75,5.75,0,0,0-4-1.22,11.59,11.59,0,0,0-3.54.56,8.94,8.94,0,0,0-2.94,1.56l-2-3.64a11.77,11.77,0,0,1,4.1-2,18.35,18.35,0,0,1,4.94-.66q4.63,0,7.18,2.22t2.54,6.86v12.52Z"/><path class="cls-3" d="M220,480.18V451.06h4.76v5l-.16,5.68.4,5.68v12.72Zm11.84-7.48a9.49,9.49,0,0,1-4.74-1.2,8.47,8.47,0,0,1-3.4-3.62,13.23,13.23,0,0,1-1.26-6.14,13.51,13.51,0,0,1,1.22-6.16A8.18,8.18,0,0,1,227,452a9.83,9.83,0,0,1,4.84-1.18,11.3,11.3,0,0,1,5.58,1.36,10.22,10.22,0,0,1,3.84,3.8,12.43,12.43,0,0,1,0,11.54,10.06,10.06,0,0,1-3.84,3.82A11.2,11.2,0,0,1,231.87,472.7Zm-.56-4.28a6.39,6.39,0,0,0,3.22-.8,5.81,5.81,0,0,0,2.26-2.32,8,8,0,0,0,0-7.14,6,6,0,0,0-2.26-2.3,6.49,6.49,0,0,0-3.22-.8,6.59,6.59,0,0,0-3.24.8,5.86,5.86,0,0,0-2.28,2.3,8,8,0,0,0,0,7.14,5.73,5.73,0,0,0,2.28,2.32A6.49,6.49,0,0,0,231.31,468.42Z"/><path class="cls-3" d="M253.63,472.7a10,10,0,0,1-4.2-.82,6.38,6.38,0,0,1-2.78-2.28,5.72,5.72,0,0,1-1-3.3,6.14,6.14,0,0,1,.86-3.24,5.77,5.77,0,0,1,2.82-2.28,13.38,13.38,0,0,1,5.2-.84h6.2v3.32h-5.84c-1.71,0-2.86.28-3.44.82a2.65,2.65,0,0,0-.88,2,2.54,2.54,0,0,0,1.08,2.16,4.91,4.91,0,0,0,3,.8,6.53,6.53,0,0,0,3.3-.84,4.77,4.77,0,0,0,2.1-2.48l.84,3a5.52,5.52,0,0,1-2.58,2.92A9.48,9.48,0,0,1,253.63,472.7Zm6.72-.28V468.1l-.28-.92v-7.56a4.44,4.44,0,0,0-1.32-3.42,5.75,5.75,0,0,0-4-1.22,11.59,11.59,0,0,0-3.54.56,8.94,8.94,0,0,0-2.94,1.56l-2-3.64a11.77,11.77,0,0,1,4.1-2,18.35,18.35,0,0,1,4.94-.66q4.64,0,7.18,2.22t2.54,6.86v12.52Z"/><path class="cls-3" d="M271.47,472.42V451.06h4.76v5.88l-.56-1.72a6.74,6.74,0,0,1,3-3.28,10.71,10.71,0,0,1,5.14-1.12v4.76a5.35,5.35,0,0,0-.6-.1l-.56,0a6.17,6.17,0,0,0-4.52,1.66,6.67,6.67,0,0,0-1.68,4.94v10.36Z"/><path class="cls-3" d="M293,472.7a10,10,0,0,1-4.2-.82A6.38,6.38,0,0,1,286,469.6a5.72,5.72,0,0,1-1-3.3,6.14,6.14,0,0,1,.86-3.24,5.77,5.77,0,0,1,2.82-2.28,13.38,13.38,0,0,1,5.2-.84h6.2v3.32h-5.84c-1.71,0-2.86.28-3.44.82a2.65,2.65,0,0,0-.88,2,2.54,2.54,0,0,0,1.08,2.16,4.91,4.91,0,0,0,3,.8,6.53,6.53,0,0,0,3.3-.84,4.77,4.77,0,0,0,2.1-2.48l.84,3a5.52,5.52,0,0,1-2.58,2.92A9.48,9.48,0,0,1,293,472.7Zm6.72-.28V468.1l-.28-.92v-7.56a4.44,4.44,0,0,0-1.32-3.42,5.75,5.75,0,0,0-4-1.22,11.59,11.59,0,0,0-3.54.56,8.94,8.94,0,0,0-2.94,1.56l-2-3.64a11.77,11.77,0,0,1,4.1-2,18.35,18.35,0,0,1,4.94-.66q4.64,0,7.18,2.22t2.54,6.86v12.52Z"/><path class="cls-3" d="M331.91,472.7a13,13,0,0,1-6.22-1.42,10.14,10.14,0,0,1-4.12-3.9,10.83,10.83,0,0,1-1.46-5.64,11.09,11.09,0,0,1,1.42-5.66,10.17,10.17,0,0,1,3.92-3.86,11.46,11.46,0,0,1,5.7-1.4,11.31,11.31,0,0,1,5.56,1.36,10,10,0,0,1,3.84,3.84,11.74,11.74,0,0,1,1.4,5.84c0,.22,0,.46,0,.72s0,.52-.06.76h-17.8V460h15.16l-2,1a6.26,6.26,0,0,0-.76-3.24,6,6,0,0,0-2.18-2.2,6.26,6.26,0,0,0-3.18-.8,6.33,6.33,0,0,0-3.22.8,5.76,5.76,0,0,0-2.16,2.22,6.84,6.84,0,0,0-.78,3.34v.8a6.48,6.48,0,0,0,.88,3.4,5.77,5.77,0,0,0,2.48,2.28,8,8,0,0,0,3.68.8,8.74,8.74,0,0,0,3.24-.56,6.88,6.88,0,0,0,2.56-1.76l2.68,3.08a9.44,9.44,0,0,1-3.62,2.58A13,13,0,0,1,331.91,472.7Z"/><path class="cls-3" d="M358.87,450.82a10.31,10.31,0,0,1,4.58,1,7.44,7.44,0,0,1,3.18,3.06,10.78,10.78,0,0,1,1.16,5.3v12.24h-5v-11.6a6,6,0,0,0-1.34-4.24,5,5,0,0,0-3.74-1.4,6.53,6.53,0,0,0-3.12.72,4.93,4.93,0,0,0-2.1,2.14,7.63,7.63,0,0,0-.74,3.58v10.8h-5V451.06h4.76v5.76l-.84-1.76a7.55,7.55,0,0,1,3.26-3.14A10.67,10.67,0,0,1,358.87,450.82Z"/><path class="cls-3" d="M371.31,455.22v-4h14.24v4Zm10.88,17.48a7.56,7.56,0,0,1-5.44-1.82,7.05,7.05,0,0,1-1.92-5.38V446.34h5v19a3.33,3.33,0,0,0,.78,2.36,2.82,2.82,0,0,0,2.18.84,4.38,4.38,0,0,0,2.8-.88l1.4,3.56a5.93,5.93,0,0,1-2.16,1.08A9.78,9.78,0,0,1,382.19,472.7Z"/><path class="cls-3" d="M391.11,472.42V451.06h4.76v5.88l-.56-1.72a6.74,6.74,0,0,1,3-3.28,10.71,10.71,0,0,1,5.14-1.12v4.76a5.35,5.35,0,0,0-.6-.1l-.56,0a6.17,6.17,0,0,0-4.52,1.66,6.67,6.67,0,0,0-1.68,4.94v10.36Z"/><path class="cls-3" d="M417.55,472.7a13,13,0,0,1-6.22-1.42,10.14,10.14,0,0,1-4.12-3.9,10.83,10.83,0,0,1-1.46-5.64,11.09,11.09,0,0,1,1.42-5.66,10.17,10.17,0,0,1,3.92-3.86,11.46,11.46,0,0,1,5.7-1.4,11.31,11.31,0,0,1,5.56,1.36,10,10,0,0,1,3.84,3.84,11.74,11.74,0,0,1,1.4,5.84c0,.22,0,.46,0,.72s0,.52-.06.76h-17.8V460h15.16l-2,1a6.26,6.26,0,0,0-.76-3.24,6,6,0,0,0-2.18-2.2,6.26,6.26,0,0,0-3.18-.8,6.33,6.33,0,0,0-3.22.8,5.76,5.76,0,0,0-2.16,2.22,6.84,6.84,0,0,0-.78,3.34v.8a6.48,6.48,0,0,0,.88,3.4,5.77,5.77,0,0,0,2.48,2.28,8,8,0,0,0,3.68.8,8.74,8.74,0,0,0,3.24-.56,6.88,6.88,0,0,0,2.56-1.76l2.68,3.08a9.44,9.44,0,0,1-3.62,2.58A13,13,0,0,1,417.55,472.7Z"/><path class="cls-3" d="M441.43,471.46a11.54,11.54,0,0,1-5.5-1.3,9.74,9.74,0,0,1-3.88-3.62,11.05,11.05,0,0,1,0-10.84,9.76,9.76,0,0,1,3.88-3.6,11.77,11.77,0,0,1,5.5-1.28,10.77,10.77,0,0,1,4.88,1.08,8.16,8.16,0,0,1,3.46,3.36,13.81,13.81,0,0,1,0,11.7,8.2,8.2,0,0,1-3.46,3.4A10.53,10.53,0,0,1,441.43,471.46Zm.64,9a21.55,21.55,0,0,1-5.78-.78,12.32,12.32,0,0,1-4.62-2.26l2.24-3.76a10.4,10.4,0,0,0,3.54,1.86,13.74,13.74,0,0,0,4.34.7q3.51,0,5.16-1.62a6.56,6.56,0,0,0,1.64-4.86v-3.8l.4-4.84-.16-4.84v-5.2h4.76v18.12q0,5.81-3,8.54T442.07,480.46Zm.12-13.24a7.12,7.12,0,0,0,3.36-.78,5.77,5.77,0,0,0,2.3-2.16,6.58,6.58,0,0,0,0-6.36,5.55,5.55,0,0,0-2.3-2.12,7.48,7.48,0,0,0-3.36-.74,7.56,7.56,0,0,0-3.38.74,5.42,5.42,0,0,0-2.32,2.12,6.58,6.58,0,0,0,0,6.36,5.64,5.64,0,0,0,2.32,2.16A7.2,7.2,0,0,0,442.19,467.22Z"/><path class="cls-3" d="M466.59,472.7a10.07,10.07,0,0,1-4.21-.82,6.41,6.41,0,0,1-2.77-2.28,5.73,5.73,0,0,1-1-3.3,6.14,6.14,0,0,1,.87-3.24,5.79,5.79,0,0,1,2.81-2.28,13.47,13.47,0,0,1,5.21-.84h6.2v3.32h-5.84c-1.71,0-2.86.28-3.44.82a2.66,2.66,0,0,0-.89,2,2.57,2.57,0,0,0,1.08,2.16,5,5,0,0,0,3,.8,6.54,6.54,0,0,0,3.31-.84,4.77,4.77,0,0,0,2.1-2.48l.84,3a5.56,5.56,0,0,1-2.58,2.92A9.5,9.5,0,0,1,466.59,472.7Zm6.71-.28V468.1l-.27-.92v-7.56a4.44,4.44,0,0,0-1.32-3.42,5.75,5.75,0,0,0-4-1.22,11.59,11.59,0,0,0-3.54.56,9.09,9.09,0,0,0-2.95,1.56l-2-3.64a11.77,11.77,0,0,1,4.1-2,18.33,18.33,0,0,1,4.93-.66c3.1,0,5.49.74,7.19,2.22s2.54,3.77,2.54,6.86v12.52Z"/><path class="cls-3" d="M484.42,472.42V451.06h4.77v5.88l-.57-1.72a6.83,6.83,0,0,1,3-3.28,10.78,10.78,0,0,1,5.15-1.12v4.76a5.35,5.35,0,0,0-.6-.1l-.57,0a6.14,6.14,0,0,0-4.51,1.66,6.63,6.63,0,0,0-1.69,4.94v10.36Z"/><path class="cls-3" d="M94.85,520.7a13,13,0,0,1-6.22-1.42,10.2,10.2,0,0,1-4.12-3.9,10.92,10.92,0,0,1-1.46-5.64,11.09,11.09,0,0,1,1.42-5.66,10.24,10.24,0,0,1,3.92-3.86,11.52,11.52,0,0,1,5.7-1.4,11.31,11.31,0,0,1,5.56,1.36,9.85,9.85,0,0,1,3.84,3.84,11.74,11.74,0,0,1,1.4,5.84c0,.22,0,.46,0,.72s0,.52-.06.76H87V508h15.16l-2,1a6.17,6.17,0,0,0-.76-3.24,5.9,5.9,0,0,0-2.18-2.2,6.26,6.26,0,0,0-3.18-.8,6.33,6.33,0,0,0-3.22.8,5.76,5.76,0,0,0-2.16,2.22,6.84,6.84,0,0,0-.78,3.34v.8a6.48,6.48,0,0,0,.88,3.4,5.83,5.83,0,0,0,2.48,2.28,8,8,0,0,0,3.68.8,8.74,8.74,0,0,0,3.24-.56,6.88,6.88,0,0,0,2.56-1.76l2.68,3.08a9.44,9.44,0,0,1-3.62,2.58A12.93,12.93,0,0,1,94.85,520.7Z"/><path class="cls-3" d="M121.81,498.82a10.28,10.28,0,0,1,4.58,1,7.33,7.33,0,0,1,3.18,3.06,10.78,10.78,0,0,1,1.16,5.3v12.24h-5v-11.6a6,6,0,0,0-1.34-4.24,4.94,4.94,0,0,0-3.74-1.4,6.59,6.59,0,0,0-3.12.72,4.93,4.93,0,0,0-2.1,2.14,7.76,7.76,0,0,0-.74,3.58v10.8h-5V499.06h4.76v5.76l-.84-1.76a7.61,7.61,0,0,1,3.26-3.14A10.7,10.7,0,0,1,121.81,498.82Z"/><path class="cls-3" d="M145.29,503.22v-4h14.24v4Zm10.88,17.48a7.56,7.56,0,0,1-5.44-1.82,7.05,7.05,0,0,1-1.92-5.38V494.34h5v19a3.33,3.33,0,0,0,.78,2.36,2.82,2.82,0,0,0,2.18.84,4.38,4.38,0,0,0,2.8-.88l1.4,3.56a5.93,5.93,0,0,1-2.16,1.08A9.72,9.72,0,0,1,156.17,520.7Z"/><path class="cls-3" d="M167.61,495.54a3.13,3.13,0,0,1-2.3-.88,3,3,0,0,1,0-4.26,3.2,3.2,0,0,1,2.3-.86,3.32,3.32,0,0,1,2.3.82,2.68,2.68,0,0,1,.9,2.06,3,3,0,0,1-3.2,3.12Zm-2.52,24.88V499.06h5v21.36Z"/><path class="cls-3" d="M186.69,520.7a13,13,0,0,1-6.22-1.42,10.14,10.14,0,0,1-4.12-3.9,10.83,10.83,0,0,1-1.46-5.64,11.09,11.09,0,0,1,1.42-5.66,10.17,10.17,0,0,1,3.92-3.86,11.46,11.46,0,0,1,5.7-1.4,11.31,11.31,0,0,1,5.56,1.36,10,10,0,0,1,3.84,3.84,11.74,11.74,0,0,1,1.4,5.84c0,.22,0,.46,0,.72s0,.52-.06.76h-17.8V508H194l-2,1a6.26,6.26,0,0,0-.76-3.24,6,6,0,0,0-2.18-2.2,6.26,6.26,0,0,0-3.18-.8,6.33,6.33,0,0,0-3.22.8,5.76,5.76,0,0,0-2.16,2.22,6.84,6.84,0,0,0-.78,3.34v.8a6.48,6.48,0,0,0,.88,3.4,5.77,5.77,0,0,0,2.48,2.28,8,8,0,0,0,3.68.8,8.74,8.74,0,0,0,3.24-.56,6.88,6.88,0,0,0,2.56-1.76l2.68,3.08a9.44,9.44,0,0,1-3.62,2.58A13,13,0,0,1,186.69,520.7Z"/><path class="cls-3" d="M228.49,498.82a10,10,0,0,1,4.54,1,7.21,7.21,0,0,1,3.1,3.06,11.14,11.14,0,0,1,1.12,5.3v12.24h-5v-11.6a6.29,6.29,0,0,0-1.24-4.24,4.53,4.53,0,0,0-3.56-1.4,5.72,5.72,0,0,0-2.9.72,4.86,4.86,0,0,0-2,2.12,7.92,7.92,0,0,0-.7,3.56v10.84h-5v-11.6a6.29,6.29,0,0,0-1.24-4.24,4.53,4.53,0,0,0-3.56-1.4,5.72,5.72,0,0,0-2.9.72,4.86,4.86,0,0,0-2,2.12,7.92,7.92,0,0,0-.7,3.56v10.84h-5V499.06h4.76v5.68l-.84-1.68a7.26,7.26,0,0,1,3.14-3.16,10,10,0,0,1,4.7-1.08,9.24,9.24,0,0,1,5.22,1.48,7.13,7.13,0,0,1,2.94,4.48l-2-.68a8.22,8.22,0,0,1,3.44-3.84A10.59,10.59,0,0,1,228.49,498.82Z"/><path class="cls-3" d="M243.65,528.18V499.06h4.76v5l-.16,5.68.4,5.68v12.72Zm11.84-7.48a9.49,9.49,0,0,1-4.74-1.2,8.47,8.47,0,0,1-3.4-3.62,13.23,13.23,0,0,1-1.26-6.14,13.51,13.51,0,0,1,1.22-6.16,8.18,8.18,0,0,1,3.34-3.58,9.83,9.83,0,0,1,4.84-1.18,11.3,11.3,0,0,1,5.58,1.36,10.22,10.22,0,0,1,3.84,3.8,12.43,12.43,0,0,1,0,11.54,10.06,10.06,0,0,1-3.84,3.82A11.2,11.2,0,0,1,255.49,520.7Zm-.56-4.28a6.39,6.39,0,0,0,3.22-.8,5.81,5.81,0,0,0,2.26-2.32,8,8,0,0,0,0-7.14,6,6,0,0,0-2.26-2.3,6.49,6.49,0,0,0-3.22-.8,6.59,6.59,0,0,0-3.24.8,5.86,5.86,0,0,0-2.28,2.3,8,8,0,0,0,0,7.14,5.73,5.73,0,0,0,2.28,2.32A6.49,6.49,0,0,0,254.93,516.42Z"/><path class="cls-3" d="M280.69,520.7a11.77,11.77,0,0,1-5.84-1.42,10.45,10.45,0,0,1-4-3.9,11.52,11.52,0,0,1,0-11.3,10.49,10.49,0,0,1,4-3.86,12,12,0,0,1,5.84-1.4,12.22,12.22,0,0,1,5.9,1.4,10.52,10.52,0,0,1,4,3.84,11.7,11.7,0,0,1,0,11.32,10.38,10.38,0,0,1-4,3.9A12,12,0,0,1,280.69,520.7Zm0-4.28a6.59,6.59,0,0,0,3.28-.8,5.62,5.62,0,0,0,2.26-2.32,8.18,8.18,0,0,0,0-7.14,5.75,5.75,0,0,0-2.26-2.3,7,7,0,0,0-6.5,0,5.88,5.88,0,0,0-2.26,2.3,8,8,0,0,0,0,7.14,5.74,5.74,0,0,0,2.26,2.32A6.36,6.36,0,0,0,280.69,516.42Z"/><path class="cls-3" d="M309.69,528.46a9.72,9.72,0,0,1-3.12-.52A7.3,7.3,0,0,1,304,526.5l2-3.68a5.73,5.73,0,0,0,1.73,1.08,5,5,0,0,0,2,.4,3.36,3.36,0,0,0,2.2-.68,6.1,6.1,0,0,0,1.56-2.28l1.24-2.8.39-.6,8.08-18.88h4.81l-10,23.08a14.05,14.05,0,0,1-2.22,3.8,6.7,6.7,0,0,1-2.72,2A9.22,9.22,0,0,1,309.69,528.46Zm4.4-7.28-9.64-22.12h5.2l7.84,18.44Z"/><path class="cls-3" d="M339.24,503.22v-4h14.24v4Zm3.52,17.2V497.86a7.36,7.36,0,0,1,2-5.38,7.6,7.6,0,0,1,5.66-2,11.07,11.07,0,0,1,2.5.28,5.3,5.3,0,0,1,2,.88l-1.35,3.76a4.14,4.14,0,0,0-1.29-.66,5.25,5.25,0,0,0-1.48-.22,3.09,3.09,0,0,0-2.36.86,3.71,3.71,0,0,0-.8,2.58v2.4l.16,2.24v17.84Z"/><path class="cls-3" d="M366.12,520.7a11.83,11.83,0,0,1-5.84-1.42,10.58,10.58,0,0,1-4-3.9,11.52,11.52,0,0,1,0-11.3,10.63,10.63,0,0,1,4-3.86,12,12,0,0,1,5.84-1.4,12.19,12.19,0,0,1,5.9,1.4,10.45,10.45,0,0,1,4,3.84,11.7,11.7,0,0,1,0,11.32,10.31,10.31,0,0,1-4,3.9A12,12,0,0,1,366.12,520.7Zm0-4.28a6.56,6.56,0,0,0,3.28-.8,5.56,5.56,0,0,0,2.26-2.32,8.18,8.18,0,0,0,0-7.14,5.69,5.69,0,0,0-2.26-2.3,7,7,0,0,0-6.5,0,6,6,0,0,0-2.26,2.3,8,8,0,0,0,0,7.14,5.81,5.81,0,0,0,2.26,2.32A6.39,6.39,0,0,0,366.12,516.42Z"/><path class="cls-3" d="M382.32,520.42V499.06h4.76v5.88l-.56-1.72a6.79,6.79,0,0,1,3-3.28,10.77,10.77,0,0,1,5.14-1.12v4.76a4.69,4.69,0,0,0-.6-.1l-.56,0a6.18,6.18,0,0,0-4.52,1.66,6.67,6.67,0,0,0-1.68,4.94v10.36Z"/><path class="cls-3" d="M425.88,498.82a10,10,0,0,1,4.54,1,7.15,7.15,0,0,1,3.1,3.06,11,11,0,0,1,1.12,5.3v12.24h-5v-11.6a6.24,6.24,0,0,0-1.24-4.24,4.5,4.5,0,0,0-3.56-1.4,5.78,5.78,0,0,0-2.9.72,4.92,4.92,0,0,0-2,2.12,8.07,8.07,0,0,0-.69,3.56v10.84h-5v-11.6a6.24,6.24,0,0,0-1.25-4.24,4.5,4.5,0,0,0-3.56-1.4,5.75,5.75,0,0,0-2.9.72,4.92,4.92,0,0,0-2,2.12,8.06,8.06,0,0,0-.7,3.56v10.84h-5V499.06h4.76v5.68l-.84-1.68A7.32,7.32,0,0,1,406,499.9a10,10,0,0,1,4.7-1.08,9.24,9.24,0,0,1,5.22,1.48,7.1,7.1,0,0,1,2.94,4.48l-2-.68a8.28,8.28,0,0,1,3.44-3.84A10.61,10.61,0,0,1,425.88,498.82Z"/><path class="cls-3" d="M447.48,520.7a10,10,0,0,1-4.2-.82,6.43,6.43,0,0,1-2.78-2.28,5.8,5.8,0,0,1-1-3.3,6.23,6.23,0,0,1,.86-3.24,5.86,5.86,0,0,1,2.82-2.28,13.41,13.41,0,0,1,5.2-.84h6.2v3.32h-5.84c-1.7,0-2.85.28-3.44.82a2.68,2.68,0,0,0-.88,2,2.54,2.54,0,0,0,1.08,2.16,4.91,4.91,0,0,0,3,.8,6.48,6.48,0,0,0,3.3-.84,4.68,4.68,0,0,0,2.1-2.48l.84,3a5.52,5.52,0,0,1-2.58,2.92A9.45,9.45,0,0,1,447.48,520.7Zm6.72-.28V516.1l-.28-.92v-7.56a4.44,4.44,0,0,0-1.32-3.42,5.73,5.73,0,0,0-4-1.22,11.59,11.59,0,0,0-3.54.56,8.94,8.94,0,0,0-2.94,1.56l-2-3.64a12,12,0,0,1,4.1-2,18.45,18.45,0,0,1,4.94-.66q4.65,0,7.18,2.22c1.7,1.48,2.54,3.77,2.54,6.86v12.52Z"/><path class="cls-3" d="M466.92,520.7A3.38,3.38,0,0,1,464.6,515a3.44,3.44,0,0,1,4.64,0,3.34,3.34,0,0,1-2.32,5.74Z"/></svg>